<svg xmlns="http://www.w3.org/2000/svg" width="50" height="50" fill="none" viewBox="0 0 50 50"><path fill="#fff" d="M48 0H2C0.89375 0 0 0.89375 0 2V48C0 49.1063 0.89375 50 2 50H48C49.1063 50 50 49.1063 50 48V2C50 0.89375 49.1063 0 48 0ZM25.0687 25.3812L13.0688 35.4437C12.7438 35.7188 12.25 35.4875 12.25 35.0625V31.1437C12.25 31 12.3187 30.8563 12.4312 30.7625L19.2938 25L12.4312 19.2375C12.3738 19.1921 12.3276 19.1341 12.2961 19.068C12.2647 19.0019 12.2489 18.9294 12.25 18.8563V14.9375C12.25 14.5125 12.7438 14.2812 13.0688 14.5562L25.0687 24.6125C25.3125 24.8125 25.3125 25.1812 25.0687 25.3812ZM37.75 35.0625C37.75 35.3375 37.5375 35.5625 37.2812 35.5625H25.7188C25.4625 35.5625 25.25 35.3375 25.25 35.0625V32.0625C25.25 31.7875 25.4625 31.5625 25.7188 31.5625H37.2812C37.5375 31.5625 37.75 31.7875 37.75 32.0625V35.0625Z"/></svg>