<svg xmlns="http://www.w3.org/2000/svg" fill="none" viewBox="0 0 52 52"><path fill="#fff" d="M16.4 0.399902C14.7026 0.399902 13.0747 1.07419 11.8745 2.27442C10.6743 3.47465 9.99999 5.10252 9.99999 6.7999V45.1999C9.99999 46.8973 10.6743 48.5252 11.8745 49.7254C13.0747 50.9256 14.7026 51.5999 16.4 51.5999H35.6C37.2974 51.5999 38.9252 50.9256 40.1255 49.7254C41.3257 48.5252 42 46.8973 42 45.1999V6.7999C42 5.10252 41.3257 3.47465 40.1255 2.27442C38.9252 1.07419 37.2974 0.399902 35.6 0.399902H16.4ZM0.399994 13.1999C0.399994 11.5025 1.07428 9.87465 2.27451 8.67442C3.47474 7.47419 5.10261 6.7999 6.79999 6.7999V45.1999C5.10261 45.1999 3.47474 44.5256 2.27451 43.3254C1.07428 42.1252 0.399994 40.4973 0.399994 38.7999V13.1999ZM45.2 45.1999V6.7999C46.8974 6.7999 48.5252 7.47419 49.7255 8.67442C50.9257 9.87465 51.6 11.5025 51.6 13.1999V38.7999C51.6 40.4973 50.9257 42.1252 49.7255 43.3254C48.5252 44.5256 46.8974 45.1999 45.2 45.1999Z"/></svg>