<svg viewBox="0 0 18 14" fill="none" xmlns="http://www.w3.org/2000/svg">
    <path
        d="M1 7.75001C0.801092 7.75001 0.610325 7.67099 0.469673 7.53034C0.329021 7.38969 0.250004 7.19892 0.250004 7.00001C0.250004 6.8011 0.329021 6.61033 0.469673 6.46968C0.610325 6.32903 0.801092 6.25001 1 6.25001L10.25 6.25001L10.25 1.00001C10.2501 0.851772 10.2942 0.706895 10.3766 0.58368C10.459 0.460464 10.5761 0.364436 10.7131 0.307725C10.85 0.251013 11.0007 0.236162 11.1461 0.265046C11.2915 0.293931 11.4251 0.365255 11.53 0.470012L17.53 6.47001C17.6705 6.61064 17.7493 6.80126 17.7493 7.00001C17.7493 7.19876 17.6705 7.38939 17.53 7.53001L11.53 13.53C11.4251 13.6348 11.2915 13.7061 11.1461 13.735C11.0007 13.7639 10.85 13.749 10.7131 13.6923C10.5761 13.6356 10.459 13.5396 10.3766 13.4163C10.2942 13.2931 10.2501 13.1483 10.25 13L10.25 7.75001L1 7.75001Z"
        fill="currentColor" fill-opacity="0.75" />
</svg>