<svg xmlns="http://www.w3.org/2000/svg" fill="none" viewBox="0 0 46 46"><path fill="currentColor" fill-rule="evenodd" d="M14.607 31.1058C14.7945 31.2933 15.0489 31.3986 15.3141 31.3986C15.5793 31.3986 15.8337 31.2933 16.0212 31.1058L24.7422 22.3848L23.328 20.9706L14.607 29.6915C14.4195 29.8791 14.3141 30.1334 14.3141 30.3986C14.3141 30.6639 14.4195 30.9182 14.607 31.1058Z" clip-rule="evenodd" opacity=".5"/><path fill="currentColor" d="M18.3781 16.021C18.2385 15.8811 18.1434 15.7029 18.105 15.5091C18.0665 15.3152 18.0863 15.1143 18.162 14.9317C18.2377 14.7491 18.3658 14.593 18.5301 14.4831C18.6944 14.3733 18.8876 14.3146 19.0852 14.3145L30.3989 14.3145C30.6639 14.3146 30.918 14.42 31.1054 14.6074C31.2928 14.7947 31.3981 15.0488 31.3983 15.3138L31.3983 26.6276C31.3982 26.8252 31.3395 27.0184 31.2296 27.1827C31.1198 27.347 30.9637 27.4751 30.7811 27.5508C30.5985 27.6264 30.3976 27.6463 30.2037 27.6078C30.0098 27.5694 29.8317 27.4743 29.6918 27.3347L18.3781 16.021Z"/></svg>