<svg xmlns="http://www.w3.org/2000/svg" fill="none" viewBox="0 0 33 33"><path fill="currentColor" d="M18.3264 26.3853C18.1859 26.2447 18.107 26.0541 18.107 25.8553C18.107 25.6566 18.1859 25.4659 18.3264 25.3253L26.0451 17.6053L5.85637 17.6053C5.65746 17.6053 5.46669 17.5263 5.32604 17.3856C5.18539 17.245 5.10637 17.0542 5.10637 16.8553C5.10637 16.6564 5.18539 16.4656 5.32604 16.325C5.46669 16.1843 5.65746 16.1053 5.85637 16.1053L26.0451 16.1053L18.3264 8.38531C18.1939 8.24314 18.1218 8.05509 18.1252 7.86079C18.1286 7.66649 18.2073 7.48111 18.3448 7.34369C18.4822 7.20628 18.6676 7.12757 18.8619 7.12414C19.0562 7.12071 19.2442 7.19283 19.3864 7.32531L28.3864 16.3253C28.5268 16.4659 28.6057 16.6566 28.6057 16.8553C28.6057 17.0541 28.5268 17.2447 28.3864 17.3853L19.3864 26.3853C19.2457 26.5258 19.0551 26.6047 18.8564 26.6047C18.6576 26.6047 18.467 26.5258 18.3264 26.3853Z"/></svg>