<svg xmlns="http://www.w3.org/2000/svg" fill="none" viewBox="0 0 24 22"><path fill="currentColor" d="M5.58594 11.0002L10.2929 15.7072C10.3858 15.8 10.496 15.8736 10.6173 15.9239C10.7386 15.9741 10.8686 16 10.9999 16C11.1312 16 11.2613 15.9741 11.3826 15.9239C11.5039 15.8736 11.6141 15.8 11.7069 15.7072C11.7998 15.6143 11.8734 15.5041 11.9237 15.3828C11.9739 15.2615 11.9998 15.1315 11.9998 15.0002C11.9998 14.8688 11.9739 14.7388 11.9237 14.6175C11.8734 14.4962 11.7998 14.386 11.7069 14.2932L9.41394 12.0002L16.9999 12.0002C17.2652 12.0002 17.5195 11.8948 17.707 11.7073C17.8946 11.5197 17.9999 11.2654 17.9999 11.0002C17.9999 10.7349 17.8946 10.4806 17.707 10.293C17.5195 10.1055 17.2652 10.0002 16.9999 10.0002L9.41394 10.0002L11.7069 7.70715C11.8001 7.6145 11.8741 7.50434 11.9245 7.383C11.975 7.26167 12.001 7.13156 12.001 7.00015C12.001 6.86874 11.975 6.73863 11.9245 6.6173C11.8741 6.49597 11.8001 6.3858 11.7069 6.29315C11.5194 6.10568 11.2651 6.00037 10.9999 6.00037C10.7348 6.00036 10.4805 6.10568 10.2929 6.29315L5.58594 11.0002Z"/></svg>