<svg xmlns="http://www.w3.org/2000/svg" fill="none" viewBox="0 0 20 20"><path fill="currentColor" fill-rule="evenodd" d="M8.96091 1.83083C8.73278 1.75469 8.49088 1.72882 8.2518 1.755C8.01273 1.78118 7.78216 1.85879 7.57591 1.9825L4.14258 4.0425C3.89579 4.19058 3.69154 4.40004 3.54974 4.6505C3.40794 4.90095 3.33341 5.18386 3.33341 5.47167V16.6667H2.50008C2.27907 16.6667 2.06711 16.7545 1.91083 16.9107C1.75455 17.067 1.66675 17.279 1.66675 17.5C1.66675 17.721 1.75455 17.933 1.91083 18.0893C2.06711 18.2455 2.27907 18.3333 2.50008 18.3333H17.5001C17.7211 18.3333 17.9331 18.2455 18.0893 18.0893C18.2456 17.933 18.3334 17.721 18.3334 17.5C18.3334 17.279 18.2456 17.067 18.0893 16.9107C17.9331 16.7545 17.7211 16.6667 17.5001 16.6667H16.6667V5.6C16.6665 5.25045 16.5564 4.90981 16.352 4.62626C16.1476 4.34272 15.8592 4.13063 15.5276 4.02L8.96091 1.83083ZM7.50008 3.9725L5.00008 5.4725V16.6667H7.50008V3.97167V3.9725Z" clip-rule="evenodd"/></svg>