<svg xmlns="http://www.w3.org/2000/svg" width="14" height="14" fill="none" viewBox="0 0 14 14"><path fill="#222021" fill-rule="evenodd" d="M7 9.24675C5.581 9.24675 3.253 5.01375 2.106 2.74375C1.777 2.09275 2.256 1.34375 2.986 1.34375H11.015C11.745 1.34375 12.223 2.09275 11.894 2.74375C10.747 5.01375 8.419 9.24675 7 9.24675ZM1 11.1567C0.901509 11.1567 0.803982 11.1761 0.712987 11.2138C0.621993 11.2515 0.539314 11.3068 0.46967 11.3764C0.400026 11.4461 0.344781 11.5287 0.30709 11.6197C0.269399 11.7107 0.25 11.8083 0.25 11.9067C0.25 12.0052 0.269399 12.1028 0.30709 12.1938C0.344781 12.2848 0.400026 12.3674 0.46967 12.4371C0.539314 12.5067 0.621993 12.562 0.712987 12.5997C0.803982 12.6374 0.901509 12.6567 1 12.6567H13C13.1989 12.6567 13.3897 12.5777 13.5303 12.4371C13.671 12.2964 13.75 12.1057 13.75 11.9067C13.75 11.7078 13.671 11.5171 13.5303 11.3764C13.3897 11.2358 13.1989 11.1567 13 11.1567H1Z" clip-rule="evenodd"/></svg>