<svg xmlns="http://www.w3.org/2000/svg" fill="none" viewBox="0 0 20 20"><path fill="currentColor" fill-opacity=".85" d="M14.3751 2.29167H5.62508C4.57527 2.29167 3.56845 2.70871 2.82612 3.45104C2.08379 4.19337 1.66675 5.20019 1.66675 6.25V13.75C1.66675 14.2698 1.76913 14.7845 1.96806 15.2648C2.16698 15.745 2.45855 16.1814 2.82612 16.549C3.56845 17.2913 4.57527 17.7083 5.62508 17.7083H14.3751C15.4242 17.7061 16.4298 17.2884 17.1716 16.5465C17.9135 15.8047 18.3312 14.7991 18.3334 13.75V6.25C18.3312 5.20086 17.9135 4.19532 17.1716 3.45347C16.4298 2.71161 15.4242 2.29387 14.3751 2.29167ZM11.3334 9.225C10.9234 9.45882 10.4596 9.58179 9.98758 9.58179C9.51559 9.58179 9.05175 9.45882 8.64175 9.225L2.93341 5.95C3.00723 5.28775 3.32259 4.67596 3.81918 4.23164C4.31577 3.78732 4.95873 3.54167 5.62508 3.54167H14.3751C15.0409 3.54349 15.6829 3.78978 16.1791 4.23375C16.6753 4.67773 16.9912 5.28847 17.0667 5.95L11.3334 9.225Z"/></svg>