<svg xmlns="http://www.w3.org/2000/svg" fill="none" viewBox="0 0 17 18"><path fill="currentColor" fill-rule="evenodd" d="M4.84467 4.90533C5.13756 5.19822 5.61244 5.19822 5.90533 4.90533L7.625 3.18566L7.625 11.375C7.625 11.7892 7.96079 12.125 8.375 12.125C8.78921 12.125 9.125 11.7892 9.125 11.375V3.18566L10.8447 4.90533C11.1376 5.19822 11.6124 5.19822 11.9053 4.90533C12.1982 4.61244 12.1982 4.13756 11.9053 3.84467L8.90533 0.84467C8.61244 0.551777 8.13756 0.551777 7.84467 0.84467L4.84467 3.84467C4.55178 4.13756 4.55178 4.61244 4.84467 4.90533Z" clip-rule="evenodd"/><path fill="currentColor" d="M8.375 17.375C12.7933 17.375 16.375 13.7933 16.375 9.375L12.625 9.375C11.6822 9.375 11.2108 9.375 10.9179 9.66789C10.625 9.96079 10.625 10.4322 10.625 11.375C10.625 12.6176 9.61764 13.625 8.375 13.625C7.13236 13.625 6.125 12.6176 6.125 11.375C6.125 10.4322 6.125 9.96079 5.83211 9.66789C5.53921 9.375 5.06781 9.375 4.125 9.375H0.375C0.375 13.7933 3.95672 17.375 8.375 17.375Z"/></svg>