<svg xmlns="http://www.w3.org/2000/svg" fill="none" viewBox="0 0 38 54"><path fill="#fff" fill-rule="evenodd" d="M0.333316 10.9999C0.333316 8.17094 1.45712 5.45783 3.45751 3.45745C5.4579 1.45706 8.17101 0.333252 11 0.333252H27C29.1667 0.333117 31.282 0.992813 33.0645 2.22455C34.847 3.45628 36.2122 5.20165 36.9783 7.22837C37.7444 9.2551 37.8751 11.4671 37.3531 13.5699C36.831 15.6728 35.681 17.5668 34.056 18.9999C36.0436 20.7488 37.3098 23.1742 37.6084 25.8048C37.907 28.4353 37.2168 31.0829 35.6718 33.2328C34.1268 35.3827 31.8375 36.8812 29.2491 37.437C26.6606 37.9928 23.958 37.5661 21.6666 36.2399V42.9999C21.6666 44.7823 21.2198 46.5362 20.3673 48.1014C19.5147 49.6667 18.2836 50.9933 16.7862 51.9602C15.2889 52.9271 13.5731 53.5033 11.7958 53.6363C10.0184 53.7692 8.23597 53.4547 6.61145 52.7214C4.98693 51.9881 3.57205 50.8594 2.49611 49.4384C1.42016 48.0174 0.717432 46.3495 0.452136 44.587C0.18684 42.8245 0.367432 41.0236 0.977411 39.3489C1.58739 37.6741 2.60731 36.179 3.94398 34.9999C2.8091 33.9989 1.90021 32.7678 1.27768 31.3885C0.655148 30.0092 0.333233 28.5132 0.333316 26.9999C0.333233 25.4866 0.655148 23.9906 1.27768 22.6113C1.90021 21.232 2.8091 20.001 3.94398 18.9999C2.8091 17.9989 1.90021 16.7678 1.27768 15.3885C0.655148 14.0092 0.333233 12.5132 0.333316 10.9999Z" clip-rule="evenodd"/></svg>