<svg xmlns="http://www.w3.org/2000/svg" fill="none" viewBox="0 0 20 20"><path fill="currentColor" fill-opacity=".85" d="M10.8567 1.66667C11.7942 1.66917 12.2701 1.67417 12.6809 1.68583L12.8426 1.69167C13.0292 1.69833 13.2134 1.70667 13.4359 1.71667C14.3226 1.75833 14.9276 1.89833 15.4584 2.10417C16.0084 2.31583 16.4717 2.6025 16.9351 3.065C17.359 3.48144 17.6869 3.98539 17.8959 4.54167C18.1017 5.0725 18.2417 5.6775 18.2834 6.565C18.2934 6.78667 18.3017 6.97083 18.3084 7.15833L18.3134 7.32C18.3259 7.73 18.3309 8.20583 18.3326 9.14333L18.3334 9.765V10.8567C18.3354 11.4645 18.329 12.0723 18.3142 12.68L18.3092 12.8417C18.3026 13.0292 18.2942 13.2133 18.2842 13.435C18.2426 14.3225 18.1009 14.9267 17.8959 15.4583C17.6869 16.0146 17.359 16.5186 16.9351 16.935C16.5186 17.3589 16.0147 17.6868 15.4584 17.8958C14.9276 18.1017 14.3226 18.2417 13.4359 18.2833L12.8426 18.3083L12.6809 18.3133C12.2701 18.325 11.7942 18.3308 10.8567 18.3325L10.2351 18.3333H9.14423C8.53612 18.3355 7.928 18.3291 7.32007 18.3142L7.1584 18.3092C6.96057 18.3017 6.76279 18.2931 6.56507 18.2833C5.6784 18.2417 5.0734 18.1017 4.54173 17.8958C3.98576 17.6867 3.4821 17.3588 3.0659 16.935C2.64169 16.5186 2.31349 16.0147 2.10423 15.4583C1.8984 14.9275 1.7584 14.3225 1.71673 13.435L1.69173 12.8417L1.68757 12.68C1.67221 12.0723 1.66526 11.4645 1.66673 10.8567V9.14333C1.66443 8.5355 1.67054 7.92766 1.68507 7.32L1.6909 7.15833C1.69757 6.97083 1.7059 6.78667 1.7159 6.565C1.75757 5.6775 1.89757 5.07333 2.1034 4.54167C2.31315 3.98516 2.64192 3.4812 3.06673 3.065C3.48269 2.64129 3.98606 2.31339 4.54173 2.10417C5.0734 1.89833 5.67757 1.75833 6.56507 1.71667C6.78673 1.70667 6.97173 1.69833 7.1584 1.69167L7.32007 1.68667C7.92773 1.67186 8.53556 1.66547 9.1434 1.6675L10.8567 1.66667ZM10.0001 5.83333C8.895 5.83333 7.83519 6.27232 7.05379 7.05372C6.27239 7.83512 5.8334 8.89493 5.8334 10C5.8334 11.1051 6.27239 12.1649 7.05379 12.9463C7.83519 13.7277 8.895 14.1667 10.0001 14.1667C11.1051 14.1667 12.1649 13.7277 12.9463 12.9463C13.7277 12.1649 14.1667 11.1051 14.1667 10C14.1667 8.89493 13.7277 7.83512 12.9463 7.05372C12.1649 6.27232 11.1051 5.83333 10.0001 5.83333ZM10.0001 7.5C10.3284 7.49995 10.6535 7.56456 10.9568 7.69014C11.2601 7.81573 11.5358 7.99983 11.768 8.23194C12.0001 8.46405 12.1843 8.73961 12.31 9.04291C12.4357 9.3462 12.5004 9.67128 12.5005 9.99958C12.5005 10.3279 12.4359 10.653 12.3103 10.9563C12.1848 11.2597 12.0007 11.5353 11.7685 11.7675C11.5364 11.9997 11.2609 12.1839 10.9576 12.3095C10.6543 12.4352 10.3292 12.4999 10.0009 12.5C9.33786 12.5 8.70197 12.2366 8.23313 11.7678C7.76429 11.2989 7.5009 10.663 7.5009 10C7.5009 9.33696 7.76429 8.70107 8.23313 8.23223C8.70197 7.76339 9.33786 7.5 10.0009 7.5M14.3759 4.58333C14.0996 4.58333 13.8347 4.69308 13.6393 4.88843C13.444 5.08378 13.3342 5.34873 13.3342 5.625C13.3342 5.90127 13.444 6.16622 13.6393 6.36157C13.8347 6.55692 14.0996 6.66667 14.3759 6.66667C14.6522 6.66667 14.9171 6.55692 15.1125 6.36157C15.3078 6.16622 15.4176 5.90127 15.4176 5.625C15.4176 5.34873 15.3078 5.08378 15.1125 4.88843C14.9171 4.69308 14.6522 4.58333 14.3759 4.58333Z"/></svg>