<svg xmlns="http://www.w3.org/2000/svg" fill="none" viewBox="0 0 128 29"><g clip-path="url(#clip0_93_604)"><path fill="red" d="M39.9725 4.4825C39.738 3.61602 39.2807 2.82609 38.6459 2.19139C38.0112 1.55669 37.2212 1.09938 36.3547 0.865C33.1825 0 20.4165 0 20.4165 0C20.4165 0 7.64997 0.02625 4.47822 0.89125C3.61178 1.12567 2.82187 1.583 2.18717 2.2177C1.55247 2.85239 1.09514 3.6423 0.860723 4.50875C-0.0987775 10.145 -0.471027 18.7327 0.886973 24.1432C1.12139 25.0097 1.57872 25.7996 2.21342 26.4343C2.84812 27.069 3.63803 27.5263 4.50447 27.7607C7.67647 28.6257 20.4427 28.6257 20.4427 28.6257C20.4427 28.6257 33.209 28.6257 36.381 27.7607C37.2474 27.5263 38.0373 27.069 38.672 26.4343C39.3067 25.7996 39.7641 25.0097 39.9985 24.1432C41.0102 18.4992 41.3222 9.91675 39.9722 4.48275"/><path fill="#fff" d="M16.3533 20.447L26.9438 14.313L16.3533 8.17871V20.447Z"/><path fill="#282828" d="M122.809 8.31019C124.199 8.31019 125.247 8.57219 125.981 9.07019C126.715 9.56836 127.239 10.3549 127.554 11.4297C127.869 12.5044 128 13.9722 128 15.8597V18.9269H121.263V19.8704L121.368 22.4657C121.446 23.0424 121.577 23.4619 121.787 23.7239C121.997 23.9862 122.337 24.1172 122.783 24.1172C123.386 24.1172 123.806 23.8814 124.015 23.4097C124.251 22.9377 124.356 22.1512 124.382 21.0764L127.869 21.2862C127.895 21.4434 127.895 21.6532 127.895 21.9152C127.895 23.5667 127.449 24.7989 126.532 25.6114C125.614 26.4239 124.356 26.8434 122.704 26.8434C120.712 26.8434 119.323 26.2144 118.536 24.9824C117.75 23.7502 117.331 21.8102 117.331 19.2152V16.0432C117.42 11.5869 118.203 8.32319 122.809 8.31019ZM74.3393 8.65094V21.7842C74.3393 22.5707 74.4178 23.1474 74.6013 23.4882C74.9735 24.2169 75.9383 24.0307 76.4625 23.6717C76.7651 23.467 77.009 23.187 77.1703 22.8592V8.65069H81.181V26.5549H78.0353L77.6945 24.3529H77.616C76.751 26.0044 75.4663 26.8432 73.7625 26.8432C71.14 26.8367 70.4983 24.9472 70.3455 23.0282L70.3355 22.8929C70.3166 22.6023 70.3055 22.3112 70.3023 22.0199V8.65094H74.3393ZM95.0223 8.65094V21.7842C95.0223 22.5707 95.1008 23.1474 95.2843 23.4882C95.6568 24.2169 96.6213 24.0307 97.1455 23.6717C97.4481 23.467 97.692 23.187 97.8533 22.8592V8.65069H101.864V26.5549H98.7183L98.3775 24.3529H98.299C97.434 26.0044 96.1493 26.8432 94.4455 26.8432C91.823 26.8367 91.1813 24.9472 91.0285 23.0282L91.0185 22.8929C90.9996 22.6023 90.9885 22.3112 90.9853 22.0199V8.65094H95.0223ZM62.7 8.31019C64.0108 8.31019 65.0855 8.57219 65.872 9.12269C66.6583 9.67319 67.2613 10.5122 67.6283 11.6654C67.9953 12.8189 68.1788 14.3654 68.1788 16.2792V18.8742C68.1788 20.7879 67.9953 22.3084 67.6283 23.4617C67.2613 24.6154 66.6845 25.4542 65.872 26.0047C65.0595 26.5289 63.9583 26.8172 62.5953 26.8172C61.1795 26.8434 60.0785 26.5552 59.266 26.0309C58.4535 25.4804 57.8765 24.6414 57.536 23.4882C57.195 22.3347 57.0378 20.8142 57.0378 18.9007V16.3052C57.0378 14.3914 57.2213 12.8187 57.6145 11.6652C58.0078 10.4857 58.6105 9.64669 59.4495 9.12269C60.2883 8.59819 61.363 8.30994 62.7 8.30994M108.156 1.12744V10.5644H108.182C108.549 9.88294 109.021 9.33244 109.676 8.91294C110.288 8.50158 111.009 8.28254 111.747 8.28394C112.717 8.28394 113.451 8.54594 114.001 9.04394C114.552 9.56844 114.945 10.3809 115.181 11.5082C115.41 12.6002 115.54 14.1104 115.548 16.0149L115.548 16.2007V19.0317C115.548 21.6792 115.207 23.6454 114.578 24.9037C113.923 26.1619 112.927 26.7912 111.563 26.7912C110.803 26.7912 110.122 26.6077 109.493 26.2669C108.936 25.9425 108.475 25.4777 108.155 24.9189L108.103 24.8249H108.025L107.605 26.5289H104.276V1.12769L108.156 1.12744ZM92.1123 2.04494V5.29519H88.1278V26.5549H84.1958V5.29544H80.185V2.04519L92.1123 2.04494ZM48.885 2.04494L48.8875 2.05494C48.9258 2.22519 49.4558 4.58144 50.0388 7.32669L50.0848 7.54419L50.1543 7.87294L50.2008 8.09369L50.224 8.20444L50.2705 8.42644L50.2938 8.53769L50.34 8.76044L50.4075 9.08619C50.8013 10.9872 51.177 12.8937 51.4018 14.2607H51.5068C51.722 13.0344 52.0348 11.4652 52.3683 9.86294L52.4558 9.44444C52.4996 9.23478 52.5438 9.02544 52.5883 8.81644L52.6568 8.49219C53.1096 6.3689 53.5761 4.24852 54.056 2.13119L54.0635 2.09744L54.0755 2.04494H58.0863L53.4463 18.5862V26.5289H49.488V18.6122H49.4618L44.8743 2.04469L48.885 2.04494ZM62.6213 11.0887C62.0708 11.0887 61.7038 11.3772 61.468 11.9802C61.2323 12.5832 61.1273 13.5004 61.1273 14.7852V20.3687C61.1273 21.6794 61.232 22.6492 61.4418 23.2262C61.6516 23.8029 62.0448 24.0912 62.6213 24.0912C63.1718 24.0912 63.565 23.8029 63.801 23.2262C64.037 22.6492 64.1418 21.6794 64.1418 20.3687V14.7849C64.1418 13.5004 64.0368 12.5567 63.801 11.9799C63.565 11.3772 63.1718 11.0887 62.6213 11.0887ZM108.863 11.6132C108.544 11.9082 108.317 12.2719 108.181 12.7267L108.156 12.8189V22.9899C108.481 23.5404 108.942 23.9074 109.755 23.9337C110.174 23.9337 110.515 23.7764 110.777 23.4619C111.039 23.1474 111.222 22.6231 111.327 21.8889C111.428 21.1844 111.481 20.2141 111.485 18.9779V16.4889C111.485 15.0734 111.432 13.9987 111.354 13.2384C111.249 12.4782 111.118 11.9277 110.882 11.6132C110.426 10.9577 109.44 10.9657 108.863 11.6132ZM122.731 11.0102C122.285 11.0364 121.97 11.1674 121.787 11.4034C121.577 11.6654 121.446 12.0587 121.368 12.6354C121.29 13.2004 121.264 15.1754 121.263 15.2544V16.5414H124.199V15.4064V15.4282C124.197 15.8249 124.189 15.1979 124.171 14.4282L124.168 14.3247C124.152 13.6482 124.128 12.8939 124.094 12.6354C124.015 12.0324 123.884 11.6129 123.674 11.3772C123.465 11.1412 123.15 11.0102 122.731 11.0102"/></g></svg>