<svg xmlns="http://www.w3.org/2000/svg" fill="none" viewBox="0 0 60 44"><path fill="#fff" d="M9.50002 11.5907C12.4778 9.45734 21.7334 -1.56666 23 6.00008C26.4667 4.84453 26.8111 5 30.5 5C34.1889 5 39.3333 6.34444 42.8 7.5C46.2667 8.65556 50.0222 8.86667 53 11L54.2667 14.1334C50.7556 11.4668 46.9333 9.44453 42.8 8.06675C38.6667 6.68897 34.4 6.00008 30 6.00008C25.6 6.00008 21.3333 6.68897 17.2 8.06675C13.0667 9.44453 9.24445 11.4668 5.73334 14.1334L9.50002 11.5907ZM26.2 42.2001L2.06667 18.0667C1.53334 17.5334 1.13334 16.9334 0.866675 16.2668C0.600008 15.6001 0.466675 14.9334 0.466675 14.2668C0.466675 13.5112 0.62223 12.7894 0.933342 12.1014C1.24445 11.4134 1.71112 10.8019 2.33334 10.2668C5.97779 7.1112 10.3111 4.72275 15.3333 3.10142C20.3556 1.48008 25.2445 0.668529 30 0.666751C34.7556 0.664973 39.6445 1.47653 44.6667 3.10142C49.6889 4.72631 54.0222 7.11475 57.6667 10.2668C58.2889 10.8001 58.7556 11.4116 59.0667 12.1014C59.3778 12.7912 59.5333 13.513 59.5333 14.2668C59.5333 14.9334 59.4 15.6001 59.1333 16.2668C58.8667 16.9334 58.4667 17.5334 57.9333 18.0667L33.8 42.2001C33.2667 42.7334 32.6667 43.1334 32 43.4001C31.3333 43.6667 30.6667 43.8001 30 43.8001C29.3333 43.8001 28.6667 43.6667 28 43.4001C27.3333 43.1334 26.7333 42.7334 26.2 42.2001Z"/></svg>