<svg xmlns="http://www.w3.org/2000/svg" fill="none" viewBox="0 0 255 251"><path fill="currentColor" d="M29.6213 107.812C28.9762 107.351 28.3589 106.827 27.8069 106.236C25.8005 104.096 24.4281 100.376 26.1373 97.2698C27.1508 95.4367 28.924 94.3438 30.6994 93.4328C41.6832 87.8264 54.2888 86.446 64.0355 85.874C90.6328 84.3177 117.605 87.7842 143.121 95.8504C143.105 95.527 143.062 95.2175 143.018 94.9079C142.277 90.2132 138.389 86.3831 135.089 83.58C122.01 72.4724 104.919 64.2498 84.3238 59.146C66.1778 54.6621 47.9598 53.0289 27.7332 51.5006C26.9943 51.4476 26.4328 50.8001 26.4913 50.0712C26.5388 49.3346 27.1838 48.7793 27.915 48.8431C47.518 50.3191 66.612 52.0213 84.9499 56.5604C105.955 61.7608 123.413 70.1638 136.818 81.5542C140.478 84.6635 144.789 88.9431 145.679 94.5152C145.795 95.2541 145.844 95.9943 145.845 96.7327C161.718 101.968 177.011 108.986 191.264 117.688C191.886 118.067 192.104 118.895 191.721 119.523C191.338 120.151 190.517 120.351 189.884 119.964C175.963 111.468 161.042 104.6 145.558 99.4457C144.753 103.297 142.39 107.018 138.817 109.841C134.32 113.38 128.786 115.063 123.476 116.365C94.5299 123.423 63.2113 121.39 35.2876 110.635C33.323 109.869 31.338 109.04 29.6213 107.812ZM142.934 98.5856C117.545 90.4795 90.6927 86.984 64.2107 88.5408C54.7211 89.0998 42.463 90.4336 31.9288 95.8041C30.5238 96.5209 29.1455 97.3388 28.4776 98.55C27.4596 100.413 28.3433 102.897 29.743 104.407C31.3881 106.174 33.8289 107.198 36.1836 108.111C63.5923 118.662 94.3388 120.663 122.76 113.738C127.785 112.511 132.992 110.938 137.082 107.715C140.227 105.258 142.3 101.92 142.934 98.5856Z"/><path fill="currentColor" d="M153.008 26.3937C152.595 26.0986 152.363 25.5737 152.475 25.0499C152.612 24.3313 153.325 23.862 154.048 24.0205C188.702 31.1758 222.103 43.2951 253.315 60.0351C253.975 60.3759 254.216 61.1854 253.868 61.8337C253.519 62.4819 252.72 62.7268 252.069 62.3752C221.086 45.7503 187.929 33.7246 153.533 26.6227C153.335 26.5788 153.16 26.5024 153.008 26.3937Z"/><path fill="currentColor" d="M28.7656 176.048C28.5367 175.884 28.3623 175.644 28.2674 175.362C28.0449 174.66 28.4486 173.911 29.1511 173.689C36.6034 171.378 44.5685 172.381 52.0804 173.604C90.2018 179.805 127.124 191.555 161.812 208.524C162.478 208.836 162.749 209.655 162.426 210.314C162.104 210.972 161.295 211.25 160.636 210.927C126.179 194.073 89.5187 182.396 51.6449 176.24C44.4399 175.072 36.8455 174.103 29.9306 176.239C29.5287 176.363 29.0926 176.282 28.7656 176.048Z"/></svg>