<svg xmlns="http://www.w3.org/2000/svg" fill="none" viewBox="0 0 56 56"><g clip-path="url(#clip0_364_218)"><path fill="#fff" d="M7 55.125H49C52.3775 55.125 55.125 52.3775 55.125 49V7C55.125 3.62252 52.3775 0.875 49 0.875H7C3.62252 0.875 0.875 3.62252 0.875 7V49C0.875 52.3775 3.62252 55.125 7 55.125ZM6.125 7C6.125 6.50995 6.50995 6.125 7 6.125H49C49.4901 6.125 49.875 6.50995 49.875 7V14.98H6.125V7Z"/><path fill="#fff" d="M12.3743 13.2439C13.8617 13.2439 15.0675 12.0381 15.0675 10.5507C15.0675 9.06323 13.8617 7.85742 12.3743 7.85742C10.8868 7.85742 9.68103 9.06323 9.68103 10.5507C9.68103 12.0381 10.8868 13.2439 12.3743 13.2439Z"/><path fill="#fff" d="M20.531 13.2439C22.0185 13.2439 23.2243 12.0381 23.2243 10.5507C23.2243 9.06323 22.0185 7.85742 20.531 7.85742C19.0436 7.85742 17.8378 9.06323 17.8378 10.5507C17.8378 12.0381 19.0436 13.2439 20.531 13.2439Z"/></g><defs><clipPath id="clip0_364_218"><rect width="56" height="56" fill="#fff"/></clipPath></defs></svg>