<svg xmlns="http://www.w3.org/2000/svg" xmlns:xlink="http://www.w3.org/1999/xlink" width="512" height="512" x="0" y="0" version="1.1" viewBox="0 0 512 512" xml:space="preserve" style="enable-background:new 0 0 512 512"><g><clipPath id="a"><path fill="#000" d="M488.587-189.387a230.4 230.4 0 1 1-460.8 0 230.4 230.4 0 1 1 460.8 0z" data-original="#000000" opacity="1"/></clipPath><g clip-path="url(#a)" transform="translate(-12.945 453.279) scale(1.042)"><path fill="#479951" d="M49.781-429.387c-17.509 0-31.593 14.115-31.593 31.625v416.78A31.517 31.517 0 0 0 49.78 50.614h416.781c17.51 0 31.625-14.085 31.625-31.594v-416.781c0-17.51-14.115-31.625-31.625-31.625z" data-original="#479951" opacity="1"/><path fill="#fff" fill-rule="evenodd" d="M213.394-304.2c-.332-.01-.83.175-1.527.588-1.566 1.05-4.672 4.286-4.767 8.008-.095 2.1-.491 2.092.884 3.428.993 1.432 1.986 1.291 3.99.241 1.152-.848 1.54-1.39 1.929-2.812.477-2.386-2.51 1.129-2.893-1.526-.667-2.466 1.24-3.48 3.053-5.866.042-1.123.062-2.04-.67-2.062zm29.191.16c-.56.075-1.245.793-2.196 2.517-.682 1.806-3.621 4.54-1.5 10.177 1.736 3.575 2.448 9.383 1.66 15.855-1.202 1.839-1.476 2.472-3.052 4.311-2.215 2.382-4.614 1.773-6.455.884-1.72-1.16-3.07-1.754-3.856-5.437.142-5.869.484-15.476-.59-17.515-1.58-3.157-4.188-2.025-5.302-1.071-5.354 4.895-7.998 13.16-9.615 19.737-1.484 4.794-3.067 3.407-4.178 1.473-2.704-2.534-2.894-22.353-6.16-19.094-5.229 14.946 3.002 31.319 8.704 29.727 4.115 1.704 6.725-6.128 8.41-14.702 1.152-2.407 2.033-2.684 2.624-1.447-.152 11.404.818 13.947 3.75 17.408 6.54 5.045 11.949.639 12.373.214l5.089-5.088c1.133-1.193 2.63-1.265 4.231-.215 1.556 1.414 1.356 3.85 4.687 5.544 2.803 1.121 8.788.273 10.177-2.142 1.868-3.203 2.321-4.303 3.187-5.517 1.333-1.775 3.615-.99 3.615-.429-.212.99-1.553 1.967-.643 3.75 1.586 1.189 1.955.425 2.893.16 3.318-1.586 5.811-8.784 5.811-8.784.147-2.685-1.38-2.481-2.356-1.928-1.274.778-1.352 1.042-2.625 1.82-1.622.242-4.765 1.312-6.32-1.097-1.589-2.896-1.598-6.934-2.812-9.856 0-.212-2.123-4.593-.161-4.874.99.184 3.119.734 3.455-1.044 1.038-1.734-2.24-6.652-4.473-9.133-1.937-2.126-4.613-2.385-7.204-.214-1.815 1.67-1.546 3.535-1.902 5.303-.462 2.03-.373 4.546 1.688 7.23 1.811 3.573 5.102 8.155 4.017 14.623 0 0-1.912 3.078-5.276 2.678-1.402-.306-3.686-.912-4.9-9.882-.92-6.79.23-16.302-2.652-20.756-.65-1.68-1.21-3.312-2.143-3.187zm-9.238.72c-.872.076-1.838 1.091-2.625 3.053-.675 1.492-1.5 9.293-1.366 9.293-.539 2.322 2.426 3.306 3.776.321 2.024-5.47 2.034-7.802 2.17-10.122-.316-1.768-1.084-2.62-1.955-2.545zm34.119.616c-.896.08-1.609.605-1.875 1.928-.357 3.11-.175 4.802.348 7.392.4 1.726 2.914 4.617 4.151 6.293 5.91 7.944 11.596 15.926 17.087 24.184a252.067 252.067 0 0 1 1.902 18.104c.89 13.098 1.16 29.404.348 43.198 2.454.097 6.386-3.963 7.766-9.909.898-8.225-.32-25.007-.401-29.861-.058-2.015-.182-4.42-.322-6.936a451.264 451.264 0 0 1 18.666 33.637c2.218-1.054 1.726-13.539.429-15.292-4.868-10.479-11.594-20.822-13.739-24.8-.774-1.437-3.41-5.446-6.534-10.07-.575-6.598-1.2-12.186-1.607-13.873-1.005-6.975 2.866.786 2.33-3.268-1.256-6.964-5.1-11.698-9.641-18.077-1.465-2.075-1.436-2.498-3.696.509-1.351 3.065-1.333 5.615-.938 8.007a42.465 42.465 0 0 0-2.383-3.16c-3.922-3.364-4.164-3.548-7.418-6.293-1.027-.729-2.98-1.85-4.473-1.714zm101.126 1.044c-.436-.068-.912.147-1.447.938-1.022.896-2.122 2.52-2.089 4.606.25 3.675.903 7.439 1.152 11.114.088.492.18.981.268 1.473-.395-.504-.74-.897-.938-1.098-7.164-7.526 3.292-1.23-1.365-7.043-3.94-4.325-5.092-5.701-8.463-8.302-1.69-1.093-2.712-3.18-3.268.375-.22 3.123-.45 6.74-.24 9.374-.013 1.463 1.503 4.217 2.811 5.838a626.473 626.473 0 0 1 14.57 18.64c1.032 13.297 1.308 25.486 2.356 38.805-.148 5.697-1.9 13.263-3.562 13.98 0 0-2.536 1.457-4.231-.16-1.233-.496-6.16-8.223-6.16-8.223-2.522-2.312-4.204-1.651-5.999 0-4.95 4.78-7.188 13.732-10.551 19.899-.868 1.376-3.31 2.547-6.026-.107-6.898-9.424-2.864-22.838-3.723-19.39-6.143 6.923-3.422 18.396-2.035 20.863 2.026 4.052 3.664 6.646 7.606 8.65 3.59 2.643 6.385.994 7.927-.857 3.613-3.743 3.66-13.317 5.356-15.211 1.19-3.48 4.17-2.881 5.624-1.34 1.41 2.026 3.073 3.344 5.142 4.446 3.37 2.973 7.392 3.513 11.356.804 2.709-1.52 4.466-3.494 6.052-7.392 1.702-4.551.86-28.403.482-41.671a539.596 539.596 0 0 1 7.553 10.953c1.095 11.647 1.592 23.118 1.232 34.119-.259 2.187 7.632-6.53 7.579-10.66-.036-3.613.007-6.887 0-9.936 3.827 6.111 7.532 12.324 11.034 18.614 2.17-1.15 1.426-13.437.053-15.132-3.666-6.152-8.361-12.8-11.998-17.944-.719-6.491-1.697-14.15-2.142-16.497-.694-3.659-1.389-9.155-2.438-13.498-.287-1.695-1.155-7.111-.883-7.632.427-1.212 2.043.039 2.839-1.366 1.19-1.298-4.13-15.082-6.83-19.015-.97-1.763-2.727-1.153-4.9 1.714-2.017 1.886-1.28 6.19-.51 10.284 2 10.433 3.784 21.058 5.196 31.656a1190.59 1190.59 0 0 0-8.945-13.123c-.085-.437-.402-2.04-.402-2.062 0-.187-.433-8.535-.804-10.525-.064-.807-.257-1.04.59-.937.897.755 1.02.796 1.58 1.045.906.165 1.698-1.367 1.151-2.786-2.803-5.17-5.606-10.363-8.409-15.533-.337-.332-.715-.682-1.152-.75zm-260.983.268c-1.553-.044-3.266.918-2.597 2.785-.39 1.018 3.04 4.457 3.642 6.347.54 1.346-.536 5.68.589 6.08 1.034.448 2.458-3 3-6.187.3-1.745.072-7.72-3.99-8.945a3.33 3.33 0 0 0-.644-.08zm297.302.034c-.354.035-.785.608-1.446 2.009-1.59 2.603-2.136 7.265-1.5 11.382 3.827 25.884 6.67 50.948 7.258 73.89-.33 2.177-.425 3.335-1.446 6.079-2.26 2.895-4.75 6.525-7.097 8.275-2.346 1.75-7.34 3.417-8.972 4.714-5.18 2.994-5.206 6.437-1.018 6.561 7.217-.838 15.757-1.43 21.64-10.31 1.573-2.49 3.427-9.236 3.508-13.365.55-24.207-.31-47.877-3.937-65.372-.232-1.705-.985-5.622-.696-6.133.467-1.198 2.828.12 3.669-1.259 1.233-1.26-6.107-10.658-8.677-14.676-.514-1.01-.83-1.84-1.286-1.795zm-75.683.402c-.298.051-.738.505-1.554 1.58-2.016 6.592-2.724 11.975-1.955 16.069 5.179 27.025 10.485 51.645 9.642 77.37 2.456.017 5.295-5.617 6.508-11.193.664-7.682-.444-12.358-.643-16.873-.199-4.515-5.111-41.148-6.106-44.564-1.2-6.46 4.776-.85 4.124-4.606-2.066-4.737-7.223-11.633-8.837-15.748-.607-1.102-.682-2.12-1.179-2.035zm-184.28.509c-.637.11-1.251.634-1.474 1.5-.14.566.245 1.509-.268 1.794-.294.297-1.412.097-1.366-1.473 0-.5-.367-1.022-.589-1.34-.223-.145-.373-.187-.776-.187-.492.02-.48.15-.75.563-.12.42-.275.831-.275 1.311-.06.559-.285.748-.696.83-.46 0-.35.05-.723-.187-.221-.242-.482-.337-.482-.75 0-.428-.112-1.11-.241-1.393-.195-.257-.504-.391-.857-.482-1.926.007-2.066 2.22-1.955 3.053-.144.158-.216 4.079 2.41 5.169 3.525 1.681 10.136.97 9.856-4.713 0-.503-.11-2.191-.16-2.652-.36-.838-1.025-1.155-1.661-1.044zm47.295.053a7.877 7.877 0 0 0-3.214.884c-2.336 2.237-2.884 5.824-1.044 8.061 1.79.846 3.577 2.648 2.383 3.642-5.063 5.41-18.243 14.447-18.907 16.096-.005.013-.024.041-.026.053-.002.012 0 .043 0 .054v.027a.248.248 0 0 0 .026.053l.027.027c.004.003.022-.003.027 0 .005.003.02.025.027.027.006.001.02-.002.026 0l.027.026c.67.45 8.916.439 9.829.027.007-.003.021-.023.027-.027.002-.001.024.002.026 0 .002-.001-.001-.024 0-.026 2.834-1.045 16.283-16.417 16.283-16.417-.697-.597-1.339-1.037-2.035-1.634-.746-.646-.671-1.28 0-1.928 3.33-1.938 2.275-6.203.536-8.141-1.443-.647-2.8-.866-4.018-.804zm123.622.054c-.354.035-.785.58-1.446 1.982-1.59 2.603-2.67 7.137-2.544 11.382 3.443 23.836 4.499 44.696 6.749 68.533.183 2.306-.155 5.655-1.687 6.99-5.669 5.919-13.842 13.218-22.737 16.578-.958 1.074 2.38 5.655 6.695 5.65 7.217-.837 13.56-4.888 19.443-15.56 1.573-2.488 4.338-7.815 4.42-11.944.55-24.208-1.22-43.03-4.848-60.526-.232-1.704-.074-3.72.214-4.231.468-.558 2.052.013 2.893-1.366 1.233-1.26-3.295-11.702-5.866-15.72-.513-1.01-.83-1.813-1.285-1.768zm-191.513.728c-.996.117-1.933.928-2.384 2.009-.167 3.823-.189 7.644.241 11.168 1.74 6.18 2.29 11.615 3.134 17.943.234 8.477-4.895 3.667-4.66-.535 1.184-5.459.864-14.052-.188-16.23-.834-2.178-1.8-2.715-3.83-2.357-1.61-.098-5.772 4.436-6.936 11.945 0 0-.97 3.854-1.393 7.285-.569 3.877-3.138 6.623-4.927-.536-1.547-5.204-2.498-18.024-5.089-15.024-.742 10.01-1.623 27.625 6.883 29.433 10.288.989 4.605-17.392 8.329-20.73.704-1.648 2.009-1.678 2.116.402v15.614c-.094 5.076 3.246 6.584 5.838 7.633 2.698-.209 4.486-.135 5.544 2.49.421 9 .864 18.023 1.285 27.022 0 0 6.237 1.792 6.535-15.185.299-9.969-1.985-18.334-.643-20.273.048-1.906 2.49-2 4.178-1.071 2.689 1.897 3.882 4.231 8.061 3.294 6.36-1.752 10.19-4.839 10.284-9.722-.371-4.64-.908-9.286-2.919-13.926.28-.844-1.217-3.04-.937-3.883 1.142 1.79 2.871 1.64 3.267 0-1.082-3.567-2.767-6.985-5.49-8.463-2.25-1.983-5.543-1.564-6.749 2.57-.559 4.765 1.726 10.41 5.196 15.025.736 1.802 1.767 4.8 1.312 7.498-1.846 1.053-3.676.615-5.223-1.017 0 0-5.061-3.79-5.061-4.633 1.343-8.6.29-9.585-.456-11.972-.52-3.294-2.08-4.338-3.347-6.588-1.266-1.342-2.984-1.342-3.803 0-2.237 3.878-1.188 12.205.428 15.935 1.168 3.43 2.96 5.57 2.116 5.57-.694 1.939-2.142 1.488-3.187-.75-1.49-4.623-1.794-11.515-1.794-14.621-.448-3.852-.946-12.08-3.482-14.167-.676-.922-1.475-1.243-2.25-1.152zm36.127.054c-.51.065-1.075.355-1.74.509-2.188.696-4.235 2.587-3.59 6.267 2.586 15.71 4.272 27.7 6.857 43.412.397 1.84-1.145 4.265-3.133 4.017-3.381-2.287-4.22-6.92-9.99-6.722-4.176.05-8.939 4.595-9.534 8.972-.696 3.478-.944 7.25 0 10.284 2.935 3.53 6.451 3.153 9.534 2.357 2.536-1.044 4.622-3.542 5.517-2.946.003.002.025-.004.027 0 .003.003-.003.023 0 .026.553.967-.052 9.139-11.945 15.453-7.308 3.282-13.126 4.066-16.256-1.902-1.94-3.729.14-17.931-4.633-14.65-14.12 36.395 33.078 41.475 38.35 1.5.342-1.127 1.382-2.259 2.116-1.981.322.137.617.574.723 1.392-1.094 36.196-36.513 38.677-42.528 27.29-1.491-2.683-1.94-8.658-2.09-12.238-.272-2.166-.816-3.416-1.446-3.91-1.435-1.078-3.363 1.734-3.776 6.615-.596 3.928-.428 5.006-.428 8.784 1.889 28.589 47.467 16.305 54.874-7.311 3.667-12.209-.074-21.42 1.152-22.55.01-.008.042-.019.054-.026.011-.007.04-.021.053-.027.013-.005.04-.022.054-.027a.766.766 0 0 1 .16-.026c4.525 4.873 10.874.619 12.266-1.072.597-.845 2.09-1.388 3.133-.294 3.53 2.537 9.716 1.34 11.008-3.134.746-4.375 1.377-8.88 1.526-13.55-2.3.713-4.154 1.248-4.901 2.035-.178.194-.31.41-.348.643-.2 1.293-.39 2.59-.59 3.883a.958.958 0 0 1-.106.294c-.098.16-.26.305-.429.402-.813.444-2.23.19-2.303-.99-1.094-4.973-5.594-5.62-8.33 2.088-1.84 1.491-5.194 1.782-5.543-.455.448-5.17-1.636-5.865-5.811-3.428-1.343-10.242-2.674-20.02-4.018-30.262 1.74-.05 3.337 1.211 4.928-.777-1.722-5.355-5.365-16.251-7.418-17.274l-.054-.027a2.727 2.727 0 0 0-.428-.401 1.483 1.483 0 0 0-.402-.187 1.384 1.384 0 0 0-.562-.054zm140.84.08c-1.806-.053-3.805 1.085-3.027 3.348-.453 1.234 3.881 5.421 4.58 7.713 1.258 3.52-.96 6.88.348 7.365 1.204.543 2.88-3.635 3.509-7.499.726-3.123-1.502-9.525-4.66-10.846a3.742 3.742 0 0 0-.75-.08zm-109.722 3.857c.823-.084 1.816.672 2.303 1.74.52 1.14.259 2.23-.589 2.438-.848.207-1.945-.547-2.464-1.688-.52-1.14-.259-2.256.59-2.463.052-.014.105-.022.16-.027zm203.538 5.276c-1.647-.058-3.442 1.192-2.732 3.642-.413 1.336 3.514 5.875 4.151 8.356.573 1.765-.872 7.455.321 7.98 1.098.589 2.641-3.93 3.214-8.114.318-2.29-1.38-10.326-4.258-11.757a3.02 3.02 0 0 0-.696-.108zm-112.533 2.785c.15.671.301 1.347.402 2.035.337 1.484.628 2.958.937 4.42-1.3-1.79-2.376-3.237-2.839-3.75-2.941-3.496.066-2.296 1.5-2.705zm25.924 12.748c-.636.11-1.25.661-1.473 1.526-.14.567.272 1.483-.24 1.768-.295.297-1.44.124-1.394-1.446 0-.5-.367-1.05-.589-1.366-.223-.146-.373-.188-.776-.188-.492.02-.48.15-.75.563-.114.42-.268.835-.268 1.312-.061.559-.258.748-.67.83-.46 0-.377.05-.75-.187-.22-.242-.482-.337-.482-.75 0-.428-.112-1.11-.24-1.393-.196-.257-.504-.364-.858-.455-1.925.007-2.038 2.193-1.928 3.026-.144.157-.242 4.106 2.384 5.196 3.525 1.68 10.162.943 9.882-4.74 0-.503-.138-2.191-.188-2.652-.36-.838-1.024-1.155-1.66-1.044zm-118.369 1.178c-.434-.044-1.004.115-1.66.509-3.118 1.686-4.325 6.688-2.384 9.615 1.813 2.577 4.68 1.633 5.062 1.633 3.054.382 4.874-5.73 4.874-5.73s.092-1.72-3.535 1.526c-1.526.285-1.734-.266-2.116-1.125-.318-1.59-.25-3.203.482-4.794.338-.954.002-1.56-.723-1.634zm167.33.777c-1.731-.084-3.573 1.036-4.044 3.401.006 1.395.63 2.162.508 3.428-.18.724-.926 1.2-2.705.348.279-.255-1.151-2.276-1.151-2.276-1.387-.845-3.24.046-4.446.83-.663 1.206-1.154 3.273-.402 5.383 1.992 3.679 8.822 9.957 12.079 10.017.06-3.317.383-7.728.562-10.472.077-1.036.32-2.177 1.313-2.437.991-.26 2.712.998 2.731-.08-.18-2.11-.602-5.225-1.794-6.696-.61-.904-1.613-1.395-2.651-1.446zm-138.509 11.543c-.046.017-.091.056-.134.08-.02.013-.06.039-.08.054-.345.258-.751.856-1.66 1.5-1.534 1.743-1.809 2.958-1.714 6.454.087.37 2.91 8.22 5.302 13.738 1.613 5.736 3.105 12.303 2.009 18.506-3.776 8.2-11.367 15.555-18.693 19.55-3.733 1.196-6.957.788-7.82-.027l-.027-.026c-2.144-1.442-2.193-4.007-2.062-4.446v-.027l.027-.027c6.182-4.306 13.244-7.79 18.773-19.416 1.633-4.442 2.131-7.11.509-13.98-.632-2.559-1.414-4.665-3.16-6.48l.027-.027c1.052-.503 3.782 1.508 4.204.241-.646-3.28-2.867-7.683-5.383-9.936-2.202-2-4.599-2.232-6.615-.402-2.27 1.264-2.754 5.803-1.66 9.775 1.214 2.99 4.493 3.515 6.829 9.534v.027c.049.378.802 4.493-.375 6.16-.955 2.977-13.218 12.648-14.087 13.23-.01.01-.071.045-.08.054l-.027.026-.027.027-.027.027h-.053a.605.605 0 0 1-.027-.027v-.027l-.027-.053c-.037-.242.028-.856 0-1.848-.08-1.812.67-5.911.616-6.615v-.027l-.027-.026v-.027h-.026c-4.054 2.617-5.393 10.64-6.133 13.016-10.263 7.09-21.917 12.366-28.63 19.55-3.495 5.46 24.086-6.269 27.291-7.686.028.02.055.054.08.08.61.67.662 3.008 2.491 5.115 2.867 3.884 8.96 6.275 14.89 4.794 9.944-3.594 15.673-10.371 21.506-17.89.834-1.213 2.14-2.168 3.348-1.232 4.008 8.973 15.564 15.358 30.504 16.016 3.457-4.204 1.803-6.271.401-7.15-.431-.288-7.43-3.016-8.516-5.732-.684-2.527.98-4.769 4.312-6.454 9.592-1.16 19.022-2.449 28.147-5.383.092-3.066 1.898-7.65 3.107-9.641.839-1.382 1.378-1.519 1.58-1.714l.027-.027c.002-.004.024-.023.026-.027l.027-.027v-.053a.881.881 0 0 0-.027-.268l-1.553-.91-30.611-.135c-.378-.145-.66-.291-.83-.428-.013-.01-.042-.043-.054-.054l-.027-.026-.026-.027-.027-.054-.027-.026v-.027l-.027-.027v-.214l.027-.027c.007-.014.018-.04.027-.053.15-.201.511-.391.964-.562 7.31-.996 20.295-3.125 21.158-15.614-.135-6.505-2.784-10.765-10.766-11.945-5.865.453-10.048 6.127-9.374 12.373-.28 1.682.57 4.983-1.152 5.357-11.25 1.027-23.53 8.077-23.942 13.122h-.027l-.027.027-.053.026h-.054c-.018.006-.062.022-.08.027h-.161c-.029-.006-.082-.02-.107-.027-.732-.203-1.674-1.41-1.527-3.106-.428-8.722-3.267-18.591-7.713-26.192-1.586-1.586-2.277-2.229-2.731-2.303-.015-.002-.04 0-.054 0h-.16zm29.3 4.606c-.637.11-1.251.635-1.474 1.5-.14.567.272 1.51-.24 1.794-.295.297-1.44.124-1.393-1.446 0-.5-.368-1.049-.59-1.366-.222-.146-.346-.187-.75-.187-.49.02-.507.15-.776.562-.114.42-.268.836-.268 1.312-.061.56-.258.748-.67.83-.459 0-.35.05-.723-.187-.22-.242-.508-.337-.508-.75 0-.427-.086-1.11-.215-1.392-.195-.258-.53-.365-.883-.456-1.926.007-2.04 2.193-1.929 3.027-.144.157-.242 4.105 2.384 5.195 3.525 1.681 11.926.691 9.882-4.74 0-.503-.137-2.191-.188-2.652-.36-.837-1.024-1.154-1.66-1.044zm118.24 4.847a.582.582 0 0 0-.295.027s-16.334 11.62-16.738 12.025c-1.62 1.44-.81 6.503 0 5.918 1.17.45 17.615-10.693 17.301-11.998.717.042 1.061-5.732-.268-5.972zm-102.806 1.723c.666-.07 1.54.156 2.383.643 1.22.705 1.971 1.77 1.875 2.544-.003.021.004.06 0 .08-.005.02-.047.06-.054.08-.006.02-.018.062-.026.08-.005.014-.02.042-.027.055l-.027.053a1.07 1.07 0 0 1-.16.188c-.587.547-1.94.469-3.214-.268-1.208-.7-1.955-1.773-1.875-2.545.003-.02.023-.06.027-.08a.906.906 0 0 1 .107-.268c.017-.03.033-.079.054-.107.004-.005.022-.021.026-.027.036-.042.09-.098.134-.133.194-.153.47-.262.777-.295zm-143.042 2.946c-8.464.155-20.858 11.094-21.184 17.167 8.93-4.29 17.703-8.417 26.781-12.855-1.465-2.188-.089-4.158-5.597-4.312zm27.424 3.803c.83.01 1.705.419 2.17 1.58.417 1.065.019 2.179-.483 2.732-.002.004.003.022 0 .026-.008.013-.018.042-.027.054-.355.458-1.602.268-2.49.268-1.075-.048-1.605-.224-2.25-1.098-.308-.972.63-1.927 1.045-2.652.004-.006.022-.02.026-.026.045-.068.119-.149.188-.215.321-.294.877-.569 1.473-.642.116-.014.23-.028.348-.027zm215.244 3.368c-1.505.185-2.935 1.609-2.276 3.883-.413 1.336 2.041 6.009 2.678 8.49.573 1.765-.738 6.76.455 7.284 1.098.589 3.985-2.964 3.883-7.418.318-2.29-.816-10.727-3.695-12.16a2.711 2.711 0 0 0-1.045-.08zm-182.807 8.249c-1.33.093-2.516.803-1.981 2.678-.08 1.36 3.758 3.013 3.99 6.16.549 1.297-.82 5.452.321 5.838 1.049.432 2.504-2.872 3.053-5.946.304-1.683-1.317-7.572-4.07-8.623a4.713 4.713 0 0 0-1.313-.107zm54.715 7.472c.1-.007.19 0 .294 0h.054c3.41.926 8.437 1.022 12.802 1.473 3.554.225 5.31 3.008 1.982 4.177-3.285 1.125-6.44 2.004-6.455 6.75.432 2.35.34 3.584-.026 4.15a1.358 1.358 0 0 1-.108.134c-.004.006-.022.022-.026.027l-.027.027-.027.027-.026.026-.054.027a.944.944 0 0 1-.16.08c-.047.016-.113.019-.161.027-.781.115-1.915-.63-2.759-1.071-2.025-1.454-7.707-4.976-8.516-12.534-.116-1.705 1.161-3.176 3.213-3.32zm-133.64 5.811c-.214.007-.64.643-1.206 1.366-5.035 8.021-5.483 19.995-2.705 23.567 1.476 1.688 3.91 2.43 5.705 1.902 3.163-1.372 4.553-7.779 3.802-10.123-1.055-1.652-1.892-1.914-2.945-.509-2.226 4.52-3.153 1.428-3.348-1.098-.341-4.79.123-9.2.643-12.694.277-1.79.266-2.417.053-2.41zm171.536 10.533a2.31 2.31 0 0 0-1.178.24c-.08 0-3.604 2.384-4.74 4.045-.693.527-.615.985-.402 1.901.54 1.241 1.491.852 2.571.268 1.433-.195 2.126.743 2.009 2.464-.662 2.145.294 2.945.294 3.08 0 .134 1.38 1.319 3 .375 3.419-1.306 5.55-2.575 10.337-3.616 1.257-.025 1.184-3.388-.804-3.508-2.593.13-4.986.263-7.579 2.303-1.595.369-1.868-.602-2.223-1.473-.405-2.16.913-3.683.643-5.303.072.071-.805-.716-1.928-.776zm109.833 4.097c-.636.02-1.305.108-2.276.188-1.05.222-1.416.682-1.607 1.955.075 1.93 1.256 1.834 2.464 2.597.7.89 1.155 1.697-.054 3.16-1.145 1.05-1.96 1.63-3.106 2.679-.54.922-.878 2.34.777 2.785 3.054.858 10.122-3.734 10.122-3.83 1.146-.859.766-2.49.67-2.49-.668-.764-2.175-.306-3.187-.43-.482 0-2.065-.233-1.312-1.633.628-.87.86-1.39 1.285-2.464.477-1.049.058-1.757-1.66-2.33-.875-.158-1.48-.207-2.116-.187zm-45.883 92.899c-.007.003-.02.022-.027.027-5.08 1.303-4.922 6.577-1.66 8.891-53.644 0-135.964-.91-153.618-.91-9.877 0-41.125-1.179-41.725-1.179 6.701 9.802 16.409 11.797 29.111 11.998 23.826 0 134.223-.295 165.641-.295-2.234 3.966.203 10.348 1.955 11.517.037.024.097.061.134.08.065.033.152.064.214.08.02.006.06-.002.08 0 2.08.491 2.996-1.015 3.696-2.115 3.374.297 22.365.572 24.103-.027.006-.003.021-.024.027-.027 1.176 1.73 2.342 3.365 4.58 3.08 3.915-.84 7-1.266 7.097-9.213 0 0-.4-13.542-9.294-12.694-2.104.318-8.007.911-8.007.911-6.832-.813-11.843-.896-19.524-1.178.71-.9 1.961-4.545.429-5.866-.4-.332-.996-.517-1.821-.455h-.027c-.012 0-.042.002-.053 0-.006-.002-.022-.025-.027-.027-.022-.007-.06-.013-.08-.026a.81.81 0 0 1-.134-.134c-.01-.012-.045-.04-.054-.054-.388-.565-.6-1.952-.857-2.303l-.027-.027-.026-.026a.433.433 0 0 0-.054-.027h-.053zm3.642 19.363c.01-.004.017.004.027 0 7.826.382 15.179.073 23.005.455 1.24 1.055.62 3.47-.188 3.91a.885.885 0 0 1-.133.054c-.03.007-.078-.001-.108 0-.03 0-.077.007-.107 0-2.544-.064-4.016-.124-6.561-.188a1.47 1.47 0 0 0-.054-.375c-.603-1.787-4.97-1.667-5.999-.267l-.053.08c-.017.028-.04.078-.054.107a1.538 1.538 0 0 0-.053.134c-.016.053-.02.132-.027.187-.007.065-.033.147-.027.215-3.435.413-6.527-.114-9.962-.241-1.008-1.255-.89-3.526.294-4.071z" data-original="#ffffff" opacity="1"/></g></g></svg>