<svg xmlns="http://www.w3.org/2000/svg" xmlns:xlink="http://www.w3.org/1999/xlink" width="21" height="15" version="1.1" viewBox="0 0 21 15"><title>AS</title><desc>Created with sketchtool.</desc><defs><linearGradient id="linearGradient-1" x1="50%" x2="50%" y1="0%" y2="100%"><stop offset="0%" stop-color="#FFF"/><stop offset="100%" stop-color="#F0F0F0"/></linearGradient><linearGradient id="linearGradient-2" x1="50%" x2="50%" y1="0%" y2="100%"><stop offset="0%" stop-color="#071585"/><stop offset="100%" stop-color="#000B64"/></linearGradient><linearGradient id="linearGradient-3" x1="50%" x2="50%" y1="0%" y2="100%"><stop offset="0%" stop-color="#D32636"/><stop offset="100%" stop-color="#BA1827"/></linearGradient><linearGradient id="linearGradient-4" x1="50%" x2="35.4%" y1="0%" y2="89.131%"><stop offset="0%" stop-color="#AB5423"/><stop offset="100%" stop-color="#5A3719"/></linearGradient></defs><g id="Symbols" fill="none" fill-rule="evenodd" stroke="none" stroke-width="1"><g id="AS"><rect id="FlagBackground" width="21" height="15" x="0" y="0" fill="url(#linearGradient-1)"/><rect id="Mask" width="21" height="15" x="0" y="0" fill="url(#linearGradient-2)"/><polygon id="Rectangle-1134" fill="url(#linearGradient-3)" fill-rule="nonzero" points="22 15.5 0 7.5 22 -.5"/><polygon id="Rectangle-1134" fill="url(#linearGradient-1)" fill-rule="nonzero" points="21 .928 2.926 7.5 21 14.072"/><path id="Rectangle-1475" fill="url(#linearGradient-4)" d="M16,7.038486 C15.8815511,6.92003711 15.1942139,7.19421386 15.1942139,7.19421386 L14,6 C14,6 13.9383569,5.33698587 14.5,5 C14.9247187,4.74516878 15.7204931,4.83977815 16.4990013,4.5 C17.7459982,3.95575102 19,3 19,3 L18.1979642,5.20559849 C18.1979642,5.20559849 19.1166408,5.67923724 18.9999998,6 C18.9661979,6.0929551 18.0694389,6.38457486 17.9999998,6.5 C17.8680615,6.71931452 18.5239661,6.78580715 18.3197925,7.03848593 C17.7327784,7.76495606 17,8.5 17,8.5 L16,8 C16,8 16.1501465,7.18863249 16,7.038486 Z"/><circle id="Oval-322" cx="13.5" cy="7.5" r="1" fill="#FFC322"/><path id="Line" fill="#FFC322" fill-rule="nonzero" d="M12.5,9 L17.5,9 C17.7761424,9 18,8.77614237 18,8.5 C18,8.22385763 17.7761424,8 17.5,8 L12.5,8 C12.2238576,8 12,8.22385763 12,8.5 C12,8.77614237 12.2238576,9 12.5,9 Z"/><path id="Line-Copy" fill="#FFC322" fill-rule="nonzero" d="M14.1969596,10.4595725 L17.6969596,8.95957252 C17.9507745,8.8507947 18.0683503,8.55685524 17.9595725,8.30304035 C17.8507947,8.04922546 17.5568552,7.93164967 17.3030404,8.04042748 L13.8030404,9.54042748 C13.5492255,9.6492053 13.4316497,9.94314476 13.5404275,10.1969596 C13.6492053,10.4507745 13.9431448,10.5683503 14.1969596,10.4595725 Z"/></g></g></svg>