<svg xmlns="http://www.w3.org/2000/svg" xmlns:xlink="http://www.w3.org/1999/xlink" width="21" height="15" version="1.1" viewBox="0 0 21 15"><title>CC</title><desc>Created with sketchtool.</desc><defs><linearGradient id="linearGradient-1" x1="50%" x2="50%" y1="0%" y2="100%"><stop offset="0%" stop-color="#FFF"/><stop offset="100%" stop-color="#F0F0F0"/></linearGradient><linearGradient id="linearGradient-2" x1="50%" x2="50%" y1="0%" y2="100%"><stop offset="0%" stop-color="#229716"/><stop offset="100%" stop-color="#1C7E12"/></linearGradient><linearGradient id="linearGradient-3" x1="50%" x2="50%" y1="0%" y2="100%"><stop offset="0%" stop-color="#FFE244"/><stop offset="100%" stop-color="#FFDF32"/></linearGradient></defs><g id="Symbols" fill="none" fill-rule="evenodd" stroke="none" stroke-width="1"><g id="CC"><rect id="FlagBackground" width="21" height="15" x="0" y="0" fill="url(#linearGradient-1)"/><rect id="Rectangle-2" width="21" height="15" x="0" y="0" fill="url(#linearGradient-2)"/><path id="Combined-Shape" fill="url(#linearGradient-3)" d="M4,6 C2.8954305,6 2,5.1045695 2,4 C2,2.8954305 2.8954305,2 4,2 C5.1045695,2 6,2.8954305 6,4 C6,5.1045695 5.1045695,6 4,6 Z M4,4 C4.2082035,4 3.83990355,5.05443624 4,5 C4.26457858,4.91003759 5,3.67204063 5,3.5 C5,3.22385763 4.55228475,3 4,3 C3.44771525,3 3,3.22385763 3,3.5 C3,3.77614237 3.44771525,4 4,4 Z"/><polygon id="Star-2" fill="url(#linearGradient-3)" points="16 13 15.293 13.207 15.5 12.5 15.293 11.793 16 12 16.707 11.793 16.5 12.5 16.707 13.207"/><polygon id="Star-2" fill="url(#linearGradient-3)" points="16 3.5 15.293 3.707 15.5 3 15.293 2.293 16 2.5 16.707 2.293 16.5 3 16.707 3.707"/><polygon id="Star-2" fill="url(#linearGradient-3)" points="19 6.5 18.293 6.707 18.5 6 18.293 5.293 19 5.5 19.707 5.293 19.5 6 19.707 6.707"/><polygon id="Star-2" fill="url(#linearGradient-3)" points="14 7.5 13.293 7.707 13.5 7 13.293 6.293 14 6.5 14.707 6.293 14.5 7 14.707 7.707"/><polygon id="Star-2" fill="url(#linearGradient-3)" points="17.5 8.75 17.146 8.854 17.25 8.5 17.146 8.146 17.5 8.25 17.854 8.146 17.75 8.5 17.854 8.854"/><path id="Oval-12" fill="url(#linearGradient-3)" d="M12.0613625,5.54741025 C11.6335382,5.2048611 11.090693,5 10.5,5 C9.11928813,5 8,6.11928813 8,7.5 C8,8.88071187 9.11928813,10 10.5,10 C11.090693,10 11.6335382,9.7951389 12.0613625,9.45258975 C11.834734,9.53712452 11.58943,9.58333333 11.3333333,9.58333333 C10.1827401,9.58333333 9.25,8.65059323 9.25,7.5 C9.25,6.34940677 10.1827401,5.41666667 11.3333333,5.41666667 C11.58943,5.41666667 11.834734,5.46287548 12.0613625,5.54741025 L12.0613625,5.54741025 Z"/></g></g></svg>