<svg xmlns="http://www.w3.org/2000/svg" xmlns:xlink="http://www.w3.org/1999/xlink" width="21" height="15" version="1.1" viewBox="0 0 21 15"><title>CU</title><desc>Created with sketchtool.</desc><defs><linearGradient id="linearGradient-1" x1="50%" x2="50%" y1="0%" y2="100%"><stop offset="0%" stop-color="#FFF"/><stop offset="100%" stop-color="#F0F0F0"/></linearGradient><linearGradient id="linearGradient-2" x1="50%" x2="50%" y1="0%" y2="100%"><stop offset="0%" stop-color="#0B389F"/><stop offset="100%" stop-color="#052E8D"/></linearGradient><linearGradient id="linearGradient-3" x1="50%" x2="50%" y1="0%" y2="100%"><stop offset="0%" stop-color="#E12A43"/><stop offset="100%" stop-color="#CD1931"/></linearGradient></defs><g id="Symbols" fill="none" fill-rule="evenodd" stroke="none" stroke-width="1"><g id="CU"><rect id="FlagBackground" width="21" height="15" x="0" y="0" fill="url(#linearGradient-1)"/><rect id="Rectangle-2" width="21" height="3" x="0" y="0" fill="url(#linearGradient-2)"/><rect id="Rectangle-2" width="21" height="3" x="0" y="6" fill="url(#linearGradient-2)"/><rect id="Rectangle-2" width="21" height="3" x="0" y="3" fill="url(#linearGradient-1)"/><rect id="Rectangle-2" width="21" height="3" x="0" y="12" fill="url(#linearGradient-2)"/><rect id="Rectangle-2" width="21" height="3" x="0" y="9" fill="url(#linearGradient-1)"/><polygon id="Rectangle-83" fill="url(#linearGradient-3)" points="0 0 10 7.5 0 15"/><polygon id="Star-53" fill="url(#linearGradient-1)" points="3.5 8.267 2.324 9.118 2.771 7.737 1.598 6.882 3.049 6.879 3.5 5.5 3.951 6.879 5.402 6.882 4.229 7.737 4.676 9.118"/></g></g></svg>