<svg xmlns="http://www.w3.org/2000/svg" xmlns:xlink="http://www.w3.org/1999/xlink" width="21" height="15" version="1.1" viewBox="0 0 21 15"><title>CX</title><desc>Created with sketchtool.</desc><defs><linearGradient id="linearGradient-1" x1="50%" x2="50%" y1="0%" y2="100%"><stop offset="0%" stop-color="#FFF"/><stop offset="100%" stop-color="#F0F0F0"/></linearGradient><linearGradient id="linearGradient-2" x1="50%" x2="50%" y1="0%" y2="100%"><stop offset="0%" stop-color="#0637C5"/><stop offset="100%" stop-color="#002CAA"/></linearGradient><linearGradient id="linearGradient-3" x1="50%" x2="50%" y1="0%" y2="100%"><stop offset="0%" stop-color="#3BA758"/><stop offset="100%" stop-color="#2C8945"/></linearGradient><linearGradient id="linearGradient-4" x1="50%" x2="50%" y1="0%" y2="100%"><stop offset="0%" stop-color="#FFCC5D"/><stop offset="100%" stop-color="#FEC54A"/></linearGradient></defs><g id="Symbols" fill="none" fill-rule="evenodd" stroke="none" stroke-width="1"><g id="CX"><rect id="FlagBackground" width="21" height="15" x="0" y="0" fill="url(#linearGradient-1)"/><rect id="Mask-Copy" width="21" height="15" x="0" y="0" fill="url(#linearGradient-2)"/><polygon id="Star-2" fill="#FFF" points="4 13 3.293 13.207 3.5 12.5 3.293 11.793 4 12 4.707 11.793 4.5 12.5 4.707 13.207"/><polygon id="Star-2" fill="#FFF" points="4 5.5 3.293 5.707 3.5 5 3.293 4.293 4 4.5 4.707 4.293 4.5 5 4.707 5.707"/><polygon id="Star-2" fill="#FFF" points="6 8.5 5.293 8.707 5.5 8 5.293 7.293 6 7.5 6.707 7.293 6.5 8 6.707 8.707"/><polygon id="Star-2" fill="#FFF" points="2 9.5 1.293 9.707 1.5 9 1.293 8.293 2 8.5 2.707 8.293 2.5 9 2.707 9.707"/><polygon id="Star-2" fill="#FFF" points="5.5 10.75 5.146 10.854 5.25 10.5 5.146 10.146 5.5 10.25 5.854 10.146 5.75 10.5 5.854 10.854"/><path id="Rectangle-2" fill="url(#linearGradient-3)" d="M0,15 L8.92088689,8.62793794 C8.92088689,8.62793794 10.9032976,9.65338011 11.6608887,9.11224365 C12.4184797,8.57110719 12.007584,6.42315426 12.007584,6.42315426 L21,0 L0,0 L0,15 Z" transform="translate(10.500000, 7.500000) scale(-1, 1) translate(-10.500000, -7.500000)"/><path id="Rectangle-1235" fill="url(#linearGradient-4)" d="M14.4608154,7.5 C14.4608154,7.5 16.8752441,7.10070801 17.1632469,5.97338867 C17.4512496,4.84606934 14.8652842,4.03911885 14.7629395,3.63378906 C14.6605947,3.22845927 15.713369,3.51604253 16.1784668,3.63378906 C16.629344,3.74793543 17.5108643,4.32946777 17.5108643,4.32946777 C17.5108643,4.32946777 17.5002035,3.52896036 17.3800049,3.15930176 C17.1780193,2.53811563 16.5443115,1.35693359 16.5443115,1.35693359 C16.5443115,1.35693359 17.6192341,2.04635707 18.0804443,2.59667969 C18.3447129,2.91200868 18.4435738,4.33495351 18.7702637,4.82263184 C19.3544946,5.69476397 20.7176961,4.72111177 20.1385498,5.64562988 C19.5594035,6.570148 18.228,6.69580008 17.1632469,7.10070801 C16.1976859,7.4678948 14.0476074,7.96191406 14.0476074,7.96191406 L14.4608154,7.5 Z"/><path id="Combined-Shape" fill="url(#linearGradient-4)" d="M10.5,10 C9.11928813,10 8,8.88071187 8,7.5 C8,6.11928813 9.11928813,5 10.5,5 C11.8807119,5 13,6.11928813 13,7.5 C13,8.88071187 11.8807119,10 10.5,10 Z M9.25823975,7.5 L9,8 C9,8 9.83917652,7.81083448 10.1229248,8 C10.5071976,8.25618185 10.5,9 10.5,9 L11,9 C11,9 10.8364748,8.27040987 11.0932007,7.75695801 C11.3499266,7.24350614 12,7 12,7 L12,6 C12,6 11.3187548,6.72708173 10.5,7 C9.68124518,7.27291827 9,7 9,7 L9.25823975,7.5 Z"/></g></g></svg>