<svg xmlns="http://www.w3.org/2000/svg" xmlns:xlink="http://www.w3.org/1999/xlink" width="21" height="15" version="1.1" viewBox="0 0 21 15"><title>KP</title><desc>Created with sketchtool.</desc><defs><linearGradient id="linearGradient-1" x1="50%" x2="50%" y1="0%" y2="100%"><stop offset="0%" stop-color="#FFF"/><stop offset="100%" stop-color="#F0F0F0"/></linearGradient><linearGradient id="linearGradient-2" x1="50%" x2="50%" y1="0%" y2="100%"><stop offset="0%" stop-color="#1461B6"/><stop offset="100%" stop-color="#0B52A1"/></linearGradient><linearGradient id="linearGradient-3" x1="50%" x2="50%" y1="0%" y2="100%"><stop offset="0%" stop-color="#F53846"/><stop offset="100%" stop-color="#EB2130"/></linearGradient></defs><g id="Symbols" fill="none" fill-rule="evenodd" stroke="none" stroke-width="1"><g id="KP"><rect id="FlagBackground" width="21" height="15" x="0" y="0" fill="url(#linearGradient-1)"/><rect id="Rectangle-2" width="21" height="3" x="0" y="0" fill="url(#linearGradient-2)"/><rect id="Rectangle-2" width="21" height="3" x="0" y="12" fill="url(#linearGradient-2)"/><rect id="Rectangle-2" width="21" height="9" x="0" y="3" fill="url(#linearGradient-1)"/><rect id="Rectangle-2-Copy-4" width="21" height="7" x="0" y="4" fill="url(#linearGradient-3)"/><path id="Oval-12" fill="url(#linearGradient-1)" d="M7.5,10 C6.11928813,10 5,8.88071187 5,7.5 C5,6.11928813 6.11928813,5 7.5,5 C8.88071187,5 10,6.11928813 10,7.5 C10,8.88071187 8.88071187,10 7.5,10 Z M7.5,8.50318386 L8.96946313,9.52254249 L8.45408455,7.81000086 L9.87764129,6.72745751 L8.08965668,6.68840721 L7.5,5 L6.91034332,6.68840721 L5.12235871,6.72745751 L6.54591545,7.81000086 L6.03053687,9.52254249 L7.5,8.50318386 Z"/></g></g></svg>