<svg xmlns="http://www.w3.org/2000/svg" xmlns:xlink="http://www.w3.org/1999/xlink" width="512" height="512" x="0" y="0" version="1.1" viewBox="0 0 512 512" xml:space="preserve" style="enable-background:new 0 0 512 512"><g><defs><g id="b"><use width="1235" height="650" transform="rotate(-144)" xlink:href="#a"/><use width="1235" height="650" transform="rotate(-72)" xlink:href="#a"/><use width="1235" height="650" xlink:href="#a"/><use width="1235" height="650" transform="rotate(72)" xlink:href="#a"/><use width="1235" height="650" transform="rotate(144)" xlink:href="#a"/></g><g id="c"><use width="1235" height="650" x="-.252" xlink:href="#b"/><use width="1235" height="650" x="-.126" xlink:href="#b"/><use width="1235" height="650" xlink:href="#b"/><use width="1235" height="650" x=".126" xlink:href="#b"/><use width="1235" height="650" x=".252" xlink:href="#b"/></g><g id="d"><use width="1235" height="650" x="-.063" xlink:href="#c"/><use width="1235" height="650" x=".315" xlink:href="#b"/></g><g id="e"><use width="1235" height="650" xlink:href="#d"/><use width="1235" height="650" y=".054" xlink:href="#c"/><use width="1235" height="650" y=".108" xlink:href="#d"/><use width="1235" height="650" y=".162" xlink:href="#c"/></g><path id="a" fill="#fff" d="m0-.5.162.5h-.324z" data-original="#ffffff" opacity="1" transform="scale(.062)"/></defs><g fill-rule="evenodd"><path fill="#e64c3c" d="M256 16A240 240 0 0 0 30.03 176h451.973A240 240 0 0 0 256 16z" data-original="#e64c3c" opacity="1"/><path fill="#fff" d="M30.03 176A240 240 0 0 0 16 256a240 240 0 0 0 13.996 80h451.972A240 240 0 0 0 496 256a240 240 0 0 0-13.996-80z" data-original="#ffffff" opacity="1"/><path fill="#29a85e" d="M29.996 336a240 240 0 0 0 226.003 160 240 240 0 0 0 225.97-160z" data-original="#29a85e" opacity="1"/><path fill="#fcd116" d="m308.553 364.062-35.703-50.229 1.7 60.93-19.311-58.52-16.334 58.725-1.205-61.613-32.918 51.3 17.01-59.23-46.577 39.32 33.712-51.587-56.097 23.844 47.42-39.357-60.633 6.25 56.914-23.632-59.781-11.9 61.35-5.806-53.617-28.992 60.336 12.536-42.69-43.508 53.961 29.763-27.97-54.159 42.791 44.346-10.763-59.996 27.819 54.989 7.4-60.503 10.373 60.745 24.905-55.634-7.992 61.104 40.196-45.822-25.647 56.034 51.917-31.938-41.025 45.985 59.025-15.216-52.756 31.85 60.886 2.857-59.8 14.885 57.34 20.677-61.53-3.403 48.697 36.66-57.794-21.389 35.729 49.385-48.923-37.473z" data-original="#fcd116" opacity="1"/></g></g></svg>