<svg xmlns="http://www.w3.org/2000/svg" xmlns:xlink="http://www.w3.org/1999/xlink" width="21" height="15" version="1.1" viewBox="0 0 21 15"><title>SY</title><desc>Created with sketchtool.</desc><defs><linearGradient id="linearGradient-1" x1="50%" x2="50%" y1="0%" y2="100%"><stop offset="0%" stop-color="#FFF"/><stop offset="100%" stop-color="#F0F0F0"/></linearGradient><linearGradient id="linearGradient-2" x1="50%" x2="50%" y1="0%" y2="100%"><stop offset="0%" stop-color="#262626"/><stop offset="100%" stop-color="#0D0D0D"/></linearGradient><linearGradient id="linearGradient-3" x1="50%" x2="50%" y1="0%" y2="100%"><stop offset="0%" stop-color="#E32139"/><stop offset="100%" stop-color="#CC162C"/></linearGradient><linearGradient id="linearGradient-4" x1="50%" x2="50%" y1="0%" y2="100%"><stop offset="0%" stop-color="#128A49"/><stop offset="100%" stop-color="#0F7A40"/></linearGradient></defs><g id="Symbols" fill="none" fill-rule="evenodd" stroke="none" stroke-width="1"><g id="SY"><rect id="FlagBackground" width="21" height="15" x="0" y="0" fill="url(#linearGradient-1)"/><rect id="Rectangle-2" width="21" height="5" x="0" y="10" fill="url(#linearGradient-2)"/><rect id="Rectangle-2" width="21" height="5" x="0" y="0" fill="url(#linearGradient-3)"/><rect id="Rectangle-2" width="21" height="5" x="0" y="5" fill="url(#linearGradient-1)"/><polygon id="Star-33" fill="url(#linearGradient-4)" points="7 8.32 5.824 9.118 6.22 7.753 5.098 6.882 6.518 6.837 7 5.5 7.482 6.837 8.902 6.882 7.78 7.753 8.176 9.118"/><polygon id="Star-33" fill="url(#linearGradient-4)" points="14 8.32 12.824 9.118 13.22 7.753 12.098 6.882 13.518 6.837 14 5.5 14.482 6.837 15.902 6.882 14.78 7.753 15.176 9.118"/></g></g></svg>