<svg xmlns="http://www.w3.org/2000/svg" xmlns:xlink="http://www.w3.org/1999/xlink" width="21" height="15" version="1.1" viewBox="0 0 21 15"><title>TK</title><desc>Created with sketchtool.</desc><defs><linearGradient id="linearGradient-1" x1="50%" x2="50%" y1="0%" y2="100%"><stop offset="0%" stop-color="#FFF"/><stop offset="100%" stop-color="#F0F0F0"/></linearGradient><linearGradient id="linearGradient-2" x1="50%" x2="50%" y1="0%" y2="100%"><stop offset="0%" stop-color="#0637C5"/><stop offset="100%" stop-color="#002CAA"/></linearGradient><linearGradient id="linearGradient-3" x1="50%" x2="50%" y1="0%" y2="100%"><stop offset="0%" stop-color="#FDD33F"/><stop offset="100%" stop-color="#FED02F"/></linearGradient></defs><g id="Symbols" fill="none" fill-rule="evenodd" stroke="none" stroke-width="1"><g id="TK"><rect id="FlagBackground" width="21" height="15" x="0" y="0" fill="url(#linearGradient-1)"/><rect id="Mask-Copy" width="21" height="15" x="0" y="0" fill="url(#linearGradient-2)"/><path id="Combined-Shape" fill="url(#linearGradient-3)" d="M4,12 L19,12 L19,13 L3,13 L4,12 Z M11.5,6 C14.5,4 18,2 18,2 C18,2 16.3573445,5.07344524 16.5,6.5 C16.6906779,8.40677857 19,11 19,11 L5,11 C5,11 8.5,8 11.5,6 Z"/><polygon id="Star-2" fill="#FFF" points="4 9 3.293 9.207 3.5 8.5 3.293 7.793 4 8 4.707 7.793 4.5 8.5 4.707 9.207"/><polygon id="Star-2" fill="#FFF" points="5 2.5 4.293 2.707 4.5 2 4.293 1.293 5 1.5 5.707 1.293 5.5 2 5.707 2.707"/><polygon id="Star-2" fill="#FFF" points="7 5.5 6.293 5.707 6.5 5 6.293 4.293 7 4.5 7.707 4.293 7.5 5 7.707 5.707"/><polygon id="Star-2" fill="#FFF" points="2 5.5 1.293 5.707 1.5 5 1.293 4.293 2 4.5 2.707 4.293 2.5 5 2.707 5.707"/></g></g></svg>