<svg xmlns="http://www.w3.org/2000/svg" width="392" height="322" fill="none" viewBox="0 0 392 322"><g clip-path="url(#clip0_20_1336)"><path style="mix-blend-mode:multiply" fill="url(#paint0_linear_20_1336)" d="M243.676 198.592H192.472L221.397 215.259L170.194 244.764H221.398L272.601 215.259L243.676 198.592Z"/><path style="mix-blend-mode:multiply" fill="url(#paint1_linear_20_1336)" d="M240.17 217.257H224.569L234.471 222.964L224.569 228.669H240.17L250.071 222.964L240.17 217.257Z"/><path style="mix-blend-mode:multiply" fill="url(#paint2_linear_20_1336)" d="M371.682 156.226L351.366 167.933L371.682 179.64L270.099 238.176L310.732 238.175L392 191.346V167.934L371.682 156.226Z"/><path fill="url(#paint3_linear_20_1336)" d="M26.3002 238.176L87.249 203.055L107.566 214.762L46.617 249.883L26.3002 238.176Z"/><path fill="url(#paint4_linear_20_1336)" d="M188.834 144.519L249.783 109.398L270.099 121.105L209.15 156.226L188.834 144.519Z"/><path fill="url(#paint5_linear_20_1336)" d="M310.733 121.105L371.682 85.984L391.999 97.6911L331.05 132.812L310.733 121.105Z"/><path fill="#EAEEF9" d="M107.566 214.762L168.514 179.641L148.198 167.934L107.566 191.348L46.6159 156.227L107.566 121.105L270.1 214.762L371.682 156.226L270.1 97.6911L249.783 109.398L331.05 156.226L270.099 191.348L107.566 97.6911L5.9823 156.227L107.566 214.762Z"/><path fill="#BDC1E4" d="M46.6159 156.227L66.9327 167.934L107.565 144.519L107.566 121.105L46.6159 156.227Z"/><path style="mix-blend-mode:multiply" fill="url(#paint6_linear_20_1336)" d="M87.2479 179.64L66.9327 167.934L107.565 144.519L127.877 156.228L87.2479 179.64Z"/><path fill="#BDC1E4" d="M270.1 214.762L270.099 238.176L371.682 179.64V156.226L270.1 214.762Z"/><path fill="#D0D4F6" d="M270.099 238.176L270.1 214.762L107.566 121.105L107.565 144.519L270.099 238.176Z"/><path fill="#F7F7FC" d="M270.1 121.105L331.05 156.226L270.099 191.348L209.15 156.226L270.1 121.105Z"/><path style="mix-blend-mode:multiply" fill="url(#paint7_linear_20_1336)" d="M127.661 156.103L107.566 121.105L107.565 144.519L127.661 156.103Z"/><path fill="#fff" d="M50.5623 235.292L51.6215 235.902L42.6706 241.06L41.6114 240.45L50.5623 235.292ZM213.096 141.635L214.155 142.246L205.204 147.403L204.145 146.793L213.096 141.635ZM192.778 153.343L193.837 153.954L189.891 156.227L188.832 155.617L192.778 153.343ZM233.412 129.928L234.471 130.539L225.52 135.696L224.462 135.086L233.412 129.928ZM253.729 118.221L254.787 118.831L245.837 123.989L244.778 123.379L253.729 118.221ZM327.103 141.635L326.044 142.246L334.995 147.403L336.054 146.793L327.103 141.635ZM306.787 129.928L305.728 130.539L314.679 135.696L315.738 135.086L306.787 129.928ZM286.471 118.221L285.411 118.831L294.362 123.989L295.422 123.379L286.471 118.221ZM245.836 188.463L244.777 189.074L253.728 194.232L254.787 193.621L245.836 188.463ZM225.52 176.757L224.461 177.367L233.412 182.525L234.471 181.914L225.52 176.757ZM205.204 165.05L204.145 165.66L213.096 170.818L214.154 170.207L205.204 165.05ZM184.886 153.343L183.827 153.954L192.778 159.111L193.836 158.5L184.886 153.343ZM334.995 118.221L336.054 118.831L327.103 123.989L326.045 123.379L334.995 118.221Z"/><path fill="#fff" d="M314.677 129.929L315.736 130.54L311.79 132.813L310.732 132.203L314.677 129.929ZM355.312 106.514L356.37 107.124L347.419 112.282L346.361 111.672L355.312 106.514ZM375.628 94.8073L376.687 95.4174L367.736 100.575L366.677 99.9647L375.628 94.8073ZM164.568 141.636L163.508 142.247L172.459 147.404L173.519 146.794L164.568 141.636ZM144.249 129.929L143.19 130.54L152.141 135.697L153.2 135.087L144.249 129.929ZM123.931 118.222L122.873 118.833L131.823 123.99L132.882 123.38L123.931 118.222ZM294.362 188.463L295.421 189.074L286.47 194.232L285.411 193.621L294.362 188.463ZM314.678 176.757L315.737 177.367L306.786 182.525L305.727 181.914L314.678 176.757ZM334.994 165.05L336.054 165.66L327.103 170.818L326.043 170.207L334.994 165.05ZM352.425 156.226L347.42 153.342L346.361 153.953L350.307 156.226L346.361 158.5L347.419 159.11L352.425 156.226ZM42.6695 165.05L41.6103 165.66L50.5612 170.818L51.6204 170.207L42.6695 165.05ZM62.9858 176.757L61.9271 177.367L70.878 182.525L71.9367 181.914L62.9858 176.757ZM83.3026 188.463L82.2439 189.074L91.1948 194.232L92.2535 193.621L83.3026 188.463ZM103.62 200.17L102.561 200.781L106.508 203.055L107.566 202.444L103.62 200.17ZM25.2388 156.226L30.2438 153.342L31.3025 153.953L27.3572 156.226L31.3031 158.5L30.2438 159.11L25.2388 156.226ZM275.105 111.672L270.1 108.788L265.094 111.672L266.153 112.282L270.1 110.008L274.046 112.282L275.105 111.672ZM265.093 200.781L270.099 203.666L275.104 200.781L274.046 200.17L270.099 202.445L266.152 200.17L265.093 200.781ZM91.1937 118.222L92.2529 118.833L83.302 123.99L82.2434 123.38L91.1937 118.222ZM112.57 111.673L107.565 108.788L102.559 111.673L103.618 112.284L107.565 110.009L111.512 112.284L112.57 111.673ZM70.8791 223.585L71.9378 224.195L62.9874 229.353L61.9282 228.743L70.8791 223.585ZM91.1954 211.878L92.2546 212.488L83.3037 217.646L82.2445 217.035L91.1954 211.878Z"/><path fill="#fff" d="M111.512 200.17L112.571 200.781L103.62 205.939L102.561 205.328L111.512 200.17ZM131.828 188.463L132.887 189.074L123.936 194.232L122.878 193.621L131.828 188.463ZM152.145 176.757L153.203 177.367L144.252 182.525L143.194 181.914L152.145 176.757Z"/><path fill="#fff" d="M152.145 176.757L153.203 177.367L144.252 182.525L143.194 181.914L152.145 176.757ZM50.5612 141.636L51.6198 142.247L42.669 147.404L41.6103 146.794L50.5612 141.636ZM70.8774 129.929L71.9361 130.54L62.9852 135.697L61.9271 135.087L70.8774 129.929ZM168.515 167.324L168.516 168.543L164.569 170.818L163.51 170.207L168.515 167.324Z"/><path fill="#0B0B33" d="M326.659 175.994L322.69 173.705L323.116 170.711L327.916 173.477L326.659 175.994ZM340.719 167.892L336.748 165.605L338.008 163.09L341.975 165.377L340.719 167.892Z"/><path fill="#B9BEE4" d="M324.299 173.898C323.694 174.291 323.19 174.821 322.829 175.445C322.468 176.068 322.259 176.769 322.22 177.488C322.22 178.81 323.151 179.345 324.299 178.684C324.904 178.291 325.407 177.761 325.768 177.137C326.129 176.513 326.337 175.813 326.375 175.094C326.375 173.772 325.446 173.236 324.299 173.898Z"/><path fill="#CED3F8" d="M324.299 177.774C323.589 178.181 323.013 177.85 323.013 177.032C323.037 176.587 323.166 176.153 323.389 175.767C323.613 175.381 323.925 175.052 324.299 174.809C325.009 174.399 325.585 174.731 325.585 175.55C325.56 175.996 325.431 176.429 325.208 176.815C324.985 177.201 324.673 177.53 324.299 177.774Z"/><path fill="#362E91" d="M324.299 173.454C323.582 173.92 322.986 174.548 322.558 175.288C322.13 176.027 321.883 176.857 321.837 177.709C321.837 179.277 322.939 179.91 324.299 179.128C325.015 178.661 325.612 178.033 326.039 177.294C326.467 176.554 326.714 175.725 326.76 174.872C326.76 173.306 325.658 172.671 324.299 173.454ZM324.299 178.483C323.249 179.088 322.397 178.597 322.397 177.387C322.433 176.728 322.624 176.087 322.955 175.516C323.285 174.945 323.746 174.459 324.299 174.099C325.349 173.495 326.2 173.984 326.2 175.196C326.165 175.854 325.974 176.495 325.643 177.066C325.313 177.637 324.853 178.123 324.299 178.483Z"/><path fill="#1F196F" d="M325.968 173.244L324.086 172.16C323.804 172.009 323.484 171.941 323.165 171.964C322.845 171.987 322.539 172.101 322.282 172.292C321.565 172.758 320.969 173.386 320.541 174.126C320.113 174.865 319.866 175.694 319.82 176.547C319.786 176.856 319.837 177.168 319.968 177.45C320.099 177.733 320.304 177.974 320.562 178.148L322.541 179.29C322.296 179.111 322.102 178.87 321.978 178.593C321.855 178.316 321.806 178.011 321.837 177.709C321.883 176.857 322.13 176.027 322.558 175.288C322.986 174.548 323.582 173.92 324.299 173.454C324.539 173.285 324.816 173.177 325.107 173.14C325.398 173.104 325.694 173.14 325.968 173.244Z"/><path fill="#B9BEE4" d="M338.358 165.795C337.753 166.189 337.25 166.719 336.889 167.343C336.528 167.967 336.32 168.667 336.281 169.386C336.281 170.708 337.211 171.244 338.358 170.582C338.963 170.189 339.466 169.659 339.827 169.035C340.188 168.412 340.396 167.712 340.435 166.992C340.435 165.67 339.505 165.135 338.358 165.795Z"/><path fill="#CED3F8" d="M338.358 169.671C337.648 170.081 337.071 169.748 337.071 168.93C337.096 168.485 337.225 168.052 337.448 167.665C337.672 167.279 337.984 166.951 338.358 166.708C339.069 166.298 339.644 166.63 339.644 167.449C339.62 167.894 339.491 168.327 339.267 168.714C339.044 169.1 338.732 169.428 338.358 169.671V169.671Z"/><path fill="#362E91" d="M338.358 165.352C337.641 165.818 337.045 166.447 336.618 167.186C336.19 167.925 335.943 168.755 335.896 169.607C335.896 171.175 336.999 171.808 338.358 171.027C339.074 170.56 339.67 169.932 340.098 169.193C340.525 168.453 340.772 167.624 340.819 166.772C340.819 165.204 339.717 164.569 338.358 165.352ZM338.358 170.38C337.308 170.987 336.457 170.496 336.457 169.285C336.493 168.626 336.683 167.986 337.014 167.414C337.344 166.843 337.805 166.358 338.358 165.998C339.408 165.393 340.259 165.883 340.259 167.093C340.223 167.752 340.033 168.392 339.702 168.964C339.372 169.535 338.911 170.02 338.358 170.38Z"/><path fill="#1F196F" d="M340.027 165.143L338.145 164.058C337.863 163.907 337.543 163.839 337.224 163.862C336.904 163.886 336.598 163.999 336.341 164.19C335.624 164.656 335.028 165.285 334.6 166.024C334.172 166.763 333.925 167.593 333.879 168.446C333.845 168.755 333.897 169.067 334.028 169.349C334.159 169.631 334.364 169.873 334.622 170.047L336.6 171.188C336.355 171.008 336.161 170.768 336.038 170.491C335.914 170.214 335.865 169.909 335.896 169.607C335.943 168.755 336.19 167.925 336.617 167.186C337.045 166.447 337.641 165.818 338.357 165.352C338.597 165.183 338.875 165.075 339.166 165.039C339.457 165.002 339.753 165.038 340.027 165.143Z"/><path fill="#B23665" d="M335.569 170.859C335.37 170.465 335.278 170.026 335.301 169.586C335.307 169.382 335.328 169.178 335.363 168.977C330.86 171.573 329.795 172.185 326.859 173.877C326.907 174.108 326.928 174.344 326.922 174.579C326.905 175.061 326.816 175.538 326.659 175.994C329.796 174.185 331.138 173.412 335.569 170.859H335.569Z"/><path fill="#D33D6F" d="M337.096 164.344L324.879 171.385L319.941 174.23V177.864L321.432 177.005C321.591 176.157 321.928 175.353 322.419 174.643C322.91 173.934 323.545 173.335 324.282 172.886C324.548 172.734 324.836 172.627 325.137 172.569C325.506 172.505 325.885 172.584 326.197 172.792C326.509 173 326.728 173.319 326.81 173.684C326.828 173.745 326.845 173.81 326.859 173.877L328.544 172.906L335.363 168.977C335.522 168.121 335.858 167.308 336.349 166.589C336.839 165.87 337.475 165.261 338.214 164.8C338.262 164.774 338.31 164.752 338.358 164.728V163.557C337.947 163.834 337.526 164.097 337.096 164.344Z"/><path fill="url(#paint8_linear_20_1336)" d="M341.738 158.741C342.79 159.941 340.643 162.021 338.358 163.557V164.728C339.634 164.103 340.663 164.558 340.919 165.775C340.955 166.009 340.976 166.244 340.981 166.48C340.964 166.961 340.876 167.437 340.719 167.892C341.017 167.72 341.196 167.616 341.22 167.603C341.745 167.206 342.24 166.771 342.701 166.301C343.352 165.454 343.695 164.41 343.672 163.341C343.76 161.9 343.681 160.487 341.738 158.741Z"/><path fill="#B23665" d="M342.701 166.301C343.353 165.454 343.695 164.41 343.672 163.341C343.678 163.261 343.682 163.182 343.684 163.103C343.677 163.1 343.672 163.096 343.672 163.09C343.053 164.246 342.092 165.184 340.919 165.775C340.951 165.936 340.969 166.099 340.974 166.263C340.979 166.338 340.982 166.411 340.981 166.474C340.965 166.957 340.876 167.435 340.719 167.892C340.891 167.792 341.058 167.695 341.221 167.603C341.746 167.206 342.241 166.771 342.701 166.301Z"/><path fill="#F2728D" d="M341.738 158.741C340.457 158.003 338.5 156.874 336.74 155.861C334.905 154.803 326.8 156.164 324.849 157.287L309.865 165.921C309.865 165.921 308.974 166.604 308.351 167.089C307.728 167.574 306.931 169.681 308.776 170.743C310.709 171.858 313.377 173.395 314.648 174.127C315.918 174.86 318.7 174.945 319.941 174.23C323.026 172.452 336.224 164.847 337.096 164.344C339.74 162.821 342.984 160.161 341.738 158.741Z"/><path fill="#B23665" d="M321.37 177.613C321.376 177.409 321.396 177.206 321.432 177.005L319.941 177.864C318.699 178.579 315.918 178.012 314.648 177.281L308.777 173.897C308.431 173.729 308.128 173.485 307.89 173.184C307.652 172.883 307.484 172.532 307.399 172.158C307.615 173.614 308.246 175.587 309.145 176.111C311.073 177.233 313.377 178.549 314.648 179.282C315.918 180.013 318.483 180.493 319.723 179.779C320.239 179.482 320.797 179.16 321.421 178.8C321.379 178.406 321.362 178.009 321.37 177.612V177.613Z"/><path fill="#F48A71" d="M315.907 176.28C315.907 176.19 315.877 176.101 315.821 176.03C315.765 175.958 315.687 175.907 315.599 175.884C315.267 175.805 314.947 175.681 314.648 175.516C313.377 174.784 310.709 173.248 308.777 172.133C308.488 171.973 308.235 171.755 308.034 171.492C308.007 171.458 307.97 171.434 307.928 171.424C307.886 171.414 307.842 171.419 307.803 171.438C307.764 171.456 307.732 171.488 307.714 171.527C307.695 171.566 307.691 171.61 307.701 171.652C307.778 171.937 307.914 172.203 308.099 172.434C308.284 172.664 308.514 172.854 308.776 172.992C310.709 174.105 313.377 175.642 314.648 176.375C314.876 176.502 315.117 176.603 315.368 176.677C315.43 176.696 315.496 176.7 315.56 176.689C315.624 176.679 315.685 176.653 315.737 176.614C315.79 176.576 315.832 176.525 315.862 176.467C315.891 176.409 315.907 176.345 315.907 176.28Z"/><path fill="url(#paint9_linear_20_1336)" d="M328.504 157.682C325.722 156.343 317 158.957 316.985 158.967C313.968 160.827 308.959 166.053 308.959 167.163C308.984 167.434 309.081 167.694 309.24 167.915C309.398 168.136 309.613 168.311 309.862 168.422L316.707 172.367C317.384 172.708 318.133 172.886 318.892 172.886C319.65 172.886 320.399 172.708 321.076 172.367L334.472 164.648C334.729 164.535 334.95 164.352 335.109 164.12C335.267 163.888 335.357 163.617 335.368 163.336C335.372 162.585 333.385 160.033 328.504 157.682Z"/><path fill="url(#paint10_linear_20_1336)" d="M317.182 158.851C320.867 156.727 325.937 156.204 328.504 157.682C331.069 159.162 330.163 162.083 326.476 164.207C322.791 166.331 317.722 166.854 315.154 165.375C312.588 163.895 313.496 160.975 317.182 158.85V158.851Z"/><path fill="#1F196F" d="M334.218 164.212L320.825 171.93C320.224 172.228 319.563 172.383 318.892 172.383C318.221 172.383 317.56 172.228 316.959 171.93L309.628 167.706C309.469 167.635 309.33 167.526 309.222 167.389C309.115 167.253 309.042 167.092 309.012 166.921C308.935 166.966 308.863 167.02 308.798 167.081C308.565 167.306 308.309 167.527 309.861 168.422L316.707 172.367C317.384 172.708 318.133 172.886 318.892 172.886C319.651 172.886 320.399 172.708 321.076 172.367L334.472 164.648C335.094 164.288 335.737 163.721 335.705 163.377C335.567 163.199 335.401 163.043 335.216 162.915C335.392 163.531 334.59 163.997 334.218 164.212Z"/><path fill="#0B0B33" d="M75.0197 135.498L70.9258 133.139L71.3655 130.05L76.3166 132.903L75.0197 135.498ZM89.5176 127.143L85.4238 124.785L86.7229 122.191L90.8146 124.549L89.5176 127.143Z"/><path fill="#B9BEE4" d="M72.5854 133.336C71.9619 133.741 71.443 134.288 71.0709 134.931C70.6988 135.575 70.484 136.297 70.4438 137.039C70.4438 138.401 71.4029 138.954 72.5854 138.272C73.2089 137.867 73.7278 137.32 74.1 136.677C74.4722 136.034 74.6872 135.312 74.7275 134.571C74.7275 133.206 73.769 132.654 72.5854 133.336Z"/><path fill="#CED3F8" d="M72.5854 137.333C71.8536 137.754 71.2599 137.412 71.2599 136.568C71.2848 136.109 71.4179 135.662 71.6483 135.264C71.8787 134.865 72.2 134.527 72.586 134.276C73.3178 133.854 73.9121 134.196 73.9121 135.04C73.8871 135.499 73.754 135.946 73.5236 136.345C73.2932 136.743 72.9714 137.081 72.5854 137.333Z"/><path fill="#362E92" d="M72.5854 132.879C71.8467 133.36 71.2319 134.007 70.791 134.77C70.35 135.532 70.0954 136.388 70.0477 137.267C70.0477 138.882 71.1839 139.538 72.5854 138.73C73.3245 138.249 73.9395 137.601 74.3806 136.839C74.8218 136.076 75.0765 135.221 75.1243 134.342C75.1243 132.725 73.9874 132.071 72.5854 132.879ZM72.5854 138.064C71.5031 138.688 70.6249 138.182 70.6249 136.934C70.6617 136.255 70.8585 135.594 71.1991 135.005C71.5397 134.416 72.0147 133.916 72.5854 133.544C73.6694 132.92 74.5465 133.426 74.5465 134.674C74.5097 135.353 74.313 136.014 73.9723 136.603C73.6315 137.192 73.1564 137.693 72.5854 138.064Z"/><path fill="#20196F" d="M74.3071 132.662L72.3659 131.544C72.0748 131.388 71.7454 131.318 71.416 131.342C71.0867 131.367 70.7711 131.484 70.506 131.68C69.7672 132.161 69.1523 132.809 68.7113 133.571C68.2702 134.334 68.0155 135.189 67.9677 136.068C67.933 136.387 67.9858 136.709 68.1205 137C68.2553 137.291 68.4669 137.54 68.7326 137.72L70.774 138.897C70.5209 138.712 70.3207 138.464 70.1933 138.178C70.0659 137.893 70.0157 137.578 70.0477 137.267C70.0953 136.388 70.3499 135.533 70.7908 134.77C71.2318 134.008 71.8466 133.36 72.5854 132.879C72.8324 132.704 73.1189 132.592 73.4193 132.555C73.7198 132.517 74.025 132.554 74.3077 132.662H74.3071Z"/><path fill="#B9BEE4" d="M87.0839 124.981C86.4604 125.387 85.9416 125.934 85.5695 126.577C85.1974 127.22 84.9825 127.942 84.9423 128.684C84.9423 130.047 85.9014 130.599 87.0839 129.918C87.7075 129.512 88.2266 128.966 88.5988 128.322C88.971 127.679 89.1859 126.957 89.226 126.215C89.226 124.852 88.2675 124.299 87.0839 124.981Z"/><path fill="#CED3F8" d="M87.0839 128.978C86.3521 129.4 85.7578 129.058 85.7578 128.214C85.7828 127.755 85.9158 127.308 86.1463 126.909C86.3767 126.511 86.6979 126.173 87.0839 125.922C87.8168 125.499 88.41 125.841 88.41 126.685C88.3851 127.145 88.252 127.592 88.0216 127.99C87.7912 128.388 87.4699 128.727 87.0839 128.978Z"/><path fill="#362E92" d="M87.0839 124.524C86.345 125.005 85.73 125.653 85.289 126.415C84.848 127.178 84.5933 128.033 84.5456 128.912C84.5456 130.528 85.6824 131.183 87.0839 130.375C87.8228 129.894 88.4378 129.246 88.8788 128.484C89.3199 127.721 89.5745 126.866 89.6222 125.987C89.6222 124.371 88.4859 123.717 87.0839 124.524ZM87.0839 129.709C86.001 130.333 85.1234 129.828 85.1234 128.58C85.1602 127.9 85.3569 127.24 85.6976 126.651C86.0382 126.062 86.5132 125.561 87.0839 125.189C88.1673 124.566 89.045 125.071 89.045 126.32C89.0081 126.999 88.8113 127.66 88.4706 128.249C88.1298 128.837 87.6547 129.338 87.0839 129.709Z"/><path fill="#20196F" d="M88.8056 124.308L86.8643 123.189C86.5733 123.034 86.2439 122.964 85.9146 122.988C85.5853 123.012 85.2696 123.129 85.0045 123.325C84.2656 123.806 83.6507 124.454 83.2097 125.217C82.7687 125.979 82.5139 126.834 82.4662 127.714C82.4313 128.032 82.4841 128.354 82.6189 128.645C82.7536 128.936 82.9652 129.185 83.231 129.365L85.2725 130.542C85.0194 130.357 84.8192 130.11 84.6918 129.824C84.5643 129.538 84.5141 129.224 84.5461 128.912C84.5939 128.033 84.8485 127.178 85.2894 126.416C85.7304 125.653 86.3451 125.005 87.0839 124.524C87.3308 124.35 87.6172 124.238 87.9175 124.201C88.2179 124.163 88.523 124.2 88.8056 124.308Z"/><path fill="#B23665" d="M69.4974 136.616L68.8052 137.015C66.175 138.531 61.9766 139.127 59.8422 137.897L57.8877 136.771C57.8877 136.771 57.2164 136.405 55.9508 135.67C55.3126 135.299 54.9021 134.287 54.8118 133.277C54.8971 134.348 55.3296 136.494 56.237 137.4L59.8339 139.473C62.7687 140.465 65.9693 140.324 68.8052 139.078L69.7098 138.557C69.5049 138.151 69.4101 137.698 69.4347 137.244C69.4404 137.033 69.4613 136.823 69.4974 136.616Z"/><path fill="#D33D6F" d="M73.1846 130.744V132.013C73.4049 131.939 73.6389 131.916 73.8695 131.944C74.1001 131.973 74.3213 132.052 74.5171 132.177C74.7129 132.302 74.8783 132.469 75.001 132.666C75.1238 132.862 75.2009 133.084 75.2266 133.315L83.9953 128.262C84.1594 127.38 84.5054 126.541 85.0116 125.8C85.5177 125.058 86.1728 124.43 86.9353 123.954C88.3192 123.198 89.4516 123.658 89.7251 124.96L91.3302 124.035V120.288L73.1846 130.744Z"/><path fill="#B23665" d="M91.3302 123.769C91.2913 123.887 91.229 123.995 91.147 124.088C91.065 124.181 90.965 124.256 90.8531 124.31C90.8168 124.332 90.4069 124.568 89.7251 124.96C89.7743 125.199 89.7959 125.442 89.7895 125.685C89.7719 126.182 89.6803 126.674 89.5177 127.143C89.8269 126.964 90.0112 126.859 90.0365 126.844C90.6704 126.479 91.3296 124.733 91.3302 124.035V123.769ZM84.2078 130.203C84.0027 129.796 83.9079 129.343 83.9326 128.889C83.9387 128.679 83.9597 128.47 83.9954 128.263L75.2266 133.315C75.2759 133.554 75.2977 133.797 75.2915 134.04C75.2739 134.537 75.1823 135.028 75.0197 135.498L84.2078 130.203Z"/><path fill="#F2728D" d="M89.1143 117.959C89.3509 118.184 65.2303 123.061 65.2303 123.061L63.4144 121.798L61.2217 123.061C54.3106 127.783 54.6347 131.971 55.9421 132.739C57.2038 133.481 57.8877 133.86 57.8877 133.86L59.8422 134.986C61.0642 135.604 62.4724 135.747 63.7941 135.388C67.5495 134.541 72.0462 131.4 73.1846 130.744L91.3302 120.288C91.3302 119.77 90.4443 118.702 89.1143 117.959V117.959Z"/><path fill="url(#paint11_linear_20_1336)" d="M82.699 113.286C79.8311 111.905 70.8367 114.6 70.8202 114.61C67.7091 116.528 62.5456 121.918 62.5456 123.062C62.571 123.341 62.6705 123.609 62.834 123.837C62.9974 124.065 63.2189 124.246 63.4755 124.36L70.5341 128.428C71.2328 128.78 72.0046 128.964 72.7874 128.964C73.5701 128.964 74.3419 128.78 75.0406 128.428L88.8535 120.469C89.1193 120.352 89.3469 120.164 89.5103 119.924C89.6738 119.685 89.7665 119.405 89.7779 119.115C89.7829 118.34 87.7338 115.71 82.699 113.286Z"/><path fill="#20196F" d="M88.5932 120.019L74.7809 127.978C74.1614 128.284 73.4792 128.444 72.7876 128.444C72.0961 128.444 71.4139 128.284 70.7944 127.978L63.234 123.622C63.07 123.548 62.9264 123.436 62.8157 123.295C62.705 123.154 62.6306 122.988 62.599 122.811C62.52 122.859 62.4462 122.915 62.3789 122.978C62.1384 123.21 61.8737 123.438 63.475 124.36L70.5341 128.428C71.2329 128.78 72.0048 128.964 72.7876 128.964C73.5705 128.964 74.3424 128.78 75.0412 128.428L88.8535 120.469C89.4973 120.098 90.1592 119.513 90.1262 119.158C89.9833 118.974 89.8129 118.813 89.6211 118.681C89.8032 119.316 88.9762 119.799 88.5932 120.019Z"/><path fill="url(#paint12_linear_20_1336)" d="M76.998 121.503C81.5839 120.234 84.7725 117.301 84.1201 114.953C83.4676 112.606 79.2211 111.731 74.6353 113.001C70.0494 114.27 66.8608 117.203 67.5132 119.551C68.1657 121.898 72.4122 122.773 76.998 121.503Z"/><path fill="#fff" d="M61.1364 136.964C61.157 136.869 61.1973 136.78 61.2546 136.701C61.312 136.623 61.3851 136.557 61.4694 136.509C61.5537 136.46 61.6472 136.43 61.7439 136.419C61.8407 136.409 61.9385 136.419 62.0311 136.449C62.2257 136.511 62.3901 136.643 62.4922 136.819C62.5943 136.996 62.6267 137.204 62.583 137.403C62.5623 137.498 62.522 137.588 62.4647 137.666C62.4074 137.744 62.3343 137.81 62.2501 137.858C62.1659 137.907 62.0725 137.937 61.9758 137.948C61.8792 137.958 61.7814 137.948 61.6889 137.918C61.4942 137.857 61.3296 137.725 61.2274 137.548C61.1253 137.371 61.0928 137.163 61.1364 136.964ZM54.6704 132.683C54.7491 132.366 54.939 132.342 55.0941 132.629C55.2561 132.97 55.3045 133.353 55.2322 133.723C55.1536 134.04 54.9637 134.063 54.8086 133.776C54.6466 133.436 54.5982 133.052 54.6704 132.683Z"/><path fill="#34318F" d="M59.796 136.271C59.796 136.408 59.6947 136.462 59.5704 136.391L56.2183 134.459C56.1536 134.418 56.0994 134.362 56.0602 134.296C56.0211 134.23 55.9979 134.156 55.9927 134.08C55.9927 133.942 56.0945 133.888 56.2183 133.959L59.5709 135.891C59.6355 135.933 59.6895 135.988 59.7285 136.054C59.7676 136.12 59.7907 136.194 59.796 136.27V136.271Z"/><path fill="url(#paint13_linear_20_1336)" d="M148.198 147.969V167.934L165.522 157.952L148.198 147.969Z"/><path fill="url(#paint14_linear_20_1336)" d="M148.198 167.934L168.514 179.641L168.515 159.676L165.522 157.952L148.198 167.934Z"/><path fill="#fff" d="M168.515 167.324L168.516 168.543L164.569 170.818L163.51 170.207L168.515 167.324Z"/><path style="mix-blend-mode:multiply" fill="url(#paint15_linear_20_1336)" d="M148.198 167.934H168.516L168.515 159.676L165.522 157.952L148.198 167.934Z"/><path fill="#7F7FF4" d="M129.85 98.8262C128.767 98.2024 128.767 97.182 129.85 96.5581L166.546 75.4122C167.156 75.1047 167.83 74.9444 168.514 74.9444C169.197 74.9444 169.871 75.1047 170.482 75.4122L227.496 108.265C228.579 108.889 228.579 109.909 227.496 110.533L190.8 131.679C190.19 131.987 189.516 132.147 188.832 132.147C188.148 132.147 187.474 131.987 186.864 131.679L129.85 98.8262Z"/><path fill="#6A6AE2" d="M168.282 84.448C168.608 84.2831 168.968 84.1971 169.333 84.1971C169.699 84.1971 170.059 84.2831 170.384 84.448C170.511 84.4908 170.621 84.5723 170.699 84.6809C170.777 84.7895 170.819 84.9198 170.819 85.0534C170.819 85.1871 170.777 85.3174 170.699 85.426C170.621 85.5346 170.511 85.6161 170.384 85.6589C170.059 85.8241 169.699 85.9102 169.334 85.9102C168.968 85.9102 168.608 85.8241 168.283 85.6589C168.156 85.6161 168.046 85.5346 167.968 85.426C167.89 85.3174 167.848 85.1871 167.848 85.0534C167.848 84.9198 167.89 84.7895 167.968 84.6809C168.046 84.5723 168.156 84.4908 168.283 84.448H168.282Z"/><path fill="url(#paint16_linear_20_1336)" d="M174.12 78.7507C174.042 77.9665 172.031 78.1493 170.636 79.8051C169.244 81.4088 168.954 83.8702 169.334 85.0532C169.811 83.4998 170.691 82.1003 171.886 80.9969C173.055 79.9347 174.267 79.5981 174.12 78.7507Z"/><path fill="url(#paint17_linear_20_1336)" d="M164.547 78.7507C164.625 77.9665 166.637 78.1493 168.031 79.8051C169.423 81.4088 169.713 83.8702 169.334 85.0532C168.857 83.4998 167.976 82.1002 166.781 80.9969C165.612 79.9347 164.4 79.5981 164.547 78.7507Z"/><path fill="url(#paint18_linear_20_1336)" d="M166.019 82.8707C166.382 83.6302 167.108 83.4078 167.677 83.4819C168.253 83.3655 169.024 84.2854 169.334 85.0532C169.692 84.5166 169.913 82.5005 168.16 81.8256C166.602 81.3253 165.64 82.2265 166.019 82.8707Z"/><path style="mix-blend-mode:multiply" fill="url(#paint19_linear_20_1336)" d="M301.301 140.65H254.408L274.92 152.47L254.408 164.289H301.301V140.65Z"/><path fill="#F6F6FB" d="M274.92 117.294L254.408 105.474L233.897 117.294L254.408 129.113L274.92 117.294Z"/><path fill="#DAE0F5" d="M270.799 117.842L254.408 108.397L238.019 117.842L254.408 127.287L270.799 117.842Z"/><path fill="#BBC0E6" d="M274.92 152.47L254.408 164.289V129.113L274.92 117.294V152.47Z"/><g style="mix-blend-mode:multiply"><path fill="#DAE0F5" d="M265.708 128.684L263.62 129.886V127.692L265.708 126.489V128.684ZM265.708 133.667L263.62 134.87V132.677L265.708 131.473V133.667ZM265.708 138.652L263.62 139.854V137.661L265.708 136.457V138.652ZM265.708 143.635L263.62 144.838V142.645L265.708 141.441V143.635ZM265.708 148.619L263.62 149.823V147.629L265.708 146.426V148.619ZM265.708 153.604L263.62 154.807V152.613L265.708 151.41V153.604Z"/></g><path fill="#CED3F8" d="M233.897 152.47L254.408 164.289V129.113L233.897 117.294V152.47Z"/><g style="mix-blend-mode:multiply"><path fill="#DAE0F5" d="M243.109 128.684L245.197 129.886V127.692L243.109 126.489V128.684ZM243.109 133.667L245.197 134.87V132.677L243.109 131.473V133.667ZM243.109 138.652L245.197 139.854V137.661L243.109 136.457V138.652ZM243.109 143.635L245.197 144.838V142.645L243.109 141.441V143.635ZM243.109 148.619L245.197 149.823V147.629L243.109 146.426V148.619ZM243.109 153.604L245.197 154.807V152.613L243.109 151.41V153.604Z"/></g><path fill="#BBC0E6" d="M254.408 108.397L238.019 117.842L237.066 117.294L254.408 107.301V108.397Z"/><path fill="#CED3F8" d="M254.408 108.397L270.799 117.842L271.751 117.294L254.408 107.301V108.397Z"/><path style="mix-blend-mode:multiply" fill="url(#paint20_linear_20_1336)" d="M303.248 151.957H286.349L303.248 161.694L289.632 169.54H306.531L320.145 161.694L303.248 151.957Z"/><path fill="#CED3F8" d="M289.632 169.54L270.697 158.629V147.918L289.632 158.826V169.54Z"/><path fill="#BBC0E6" d="M289.632 169.54L303.248 161.694V150.984L289.632 158.826V169.54Z"/><path fill="#F6F6FB" d="M289.632 158.826L303.248 150.984L284.314 140.074L270.697 147.918L289.632 158.826Z"/><path style="mix-blend-mode:multiply" fill="url(#paint21_linear_20_1336)" d="M273.396 149.45H300.586L284.314 140.074L270.697 147.918L273.396 149.45Z"/><path style="mix-blend-mode:multiply" fill="url(#paint22_linear_20_1336)" d="M273.242 149.384L280.519 164.289L270.697 158.629V147.918L273.242 149.384Z"/><path style="mix-blend-mode:multiply" fill="url(#paint23_linear_20_1336)" d="M168.753 93.3223H153.357L164.171 99.5556L153.357 105.787H168.753L179.568 99.5556L168.753 93.3223Z"/><path fill="#A3A9D0" d="M153.357 105.787L164.171 99.5556V90.2079L153.357 96.4389V105.787Z"/><path fill="#F1F1F6" d="M153.357 96.4389L142.542 90.2079L153.357 83.9801L164.171 90.2079L153.357 96.4389Z"/><path fill="#BBC0E6" d="M153.357 96.4389L147.949 88.233L158.765 82.0035L164.171 90.2079L153.357 96.4389Z"/><path fill="#F6F6FB" d="M147.949 88.2335L142.542 90.2079L153.357 83.9801L158.765 82.0035L147.949 88.2335Z"/><path fill="#CED3F8" d="M147.949 88.233L142.542 90.2079V99.5556L153.357 105.787V96.4389L147.949 88.233Z"/><path style="mix-blend-mode:multiply" fill="url(#paint24_linear_20_1336)" d="M185.501 102.973H170.105L180.918 109.206L170.105 115.438H185.501L196.316 109.206L185.501 102.973Z"/><path fill="#A3A9D0" d="M170.105 115.438L180.918 109.206V99.8582L170.105 106.089V115.438Z"/><path fill="#F1F1F6" d="M170.105 106.089L159.29 99.8582L170.105 93.6304L180.918 99.8582L170.105 106.089Z"/><path fill="#BBC0E6" d="M170.105 106.089L164.697 97.8833L175.513 91.6539L180.918 99.8582L170.105 106.089Z"/><path fill="#F6F6FB" d="M164.697 97.8838L159.29 99.8582L170.105 93.6304L175.513 91.6539L164.697 97.8838Z"/><path fill="#CED3F8" d="M164.697 97.8833L159.29 99.8582V109.206L170.105 115.438V106.089L164.697 97.8833Z"/><path style="mix-blend-mode:multiply" fill="url(#paint25_linear_20_1336)" d="M202.249 112.623H186.852L197.666 118.856L186.852 125.088H202.249L213.063 118.856L202.249 112.623Z"/><path fill="#A3A9D0" d="M186.852 125.088L197.666 118.856V109.508L186.852 115.739V125.088Z"/><path fill="#F1F1F6" d="M186.852 115.739L176.038 109.508L186.852 103.281L197.666 109.508L186.852 115.739Z"/><path fill="#BBC0E6" d="M186.852 115.739L181.444 107.534L192.26 101.304L197.666 109.509L186.852 115.739Z"/><path fill="#F6F6FB" d="M181.444 107.534L176.038 109.509L186.852 103.281L192.26 101.304L181.444 107.534Z"/><path fill="#CED3F8" d="M181.444 107.534L176.038 109.508V118.856L186.852 125.088V115.739L181.444 107.534Z"/><path style="mix-blend-mode:multiply" fill="url(#paint26_linear_20_1336)" d="M269.486 68.767H208.689L229.118 80.5378L208.689 92.3102H269.486V68.767Z"/><path fill="#BBC0E6" d="M229.179 80.5032L208.689 92.3102V51.9482L229.179 40.1418V80.5032Z"/><g style="mix-blend-mode:multiply"><path fill="#DAE0F5" d="M227.12 47.6475L210.748 57.082V54.8891L227.12 45.4551V47.6475ZM227.12 52.6264L210.748 62.0604V59.8691L227.12 50.4341V52.6264ZM227.12 57.6048L210.748 67.0393V64.8475L227.12 55.4141V57.6048ZM227.12 62.5832L210.748 72.0177V69.827L227.12 60.3919V62.5832ZM227.12 67.5627L210.748 76.9961V74.8037L227.12 65.3709V67.5627ZM227.12 72.5411L210.748 81.975V79.7832L227.12 70.3492V72.5411ZM227.12 77.52L210.748 86.9534V84.7616L227.12 75.3282V77.52Z"/></g><path fill="#CED3F8" d="M188.2 80.5032L208.689 92.3102V51.9482L188.2 40.1418V80.5032Z"/><g style="mix-blend-mode:multiply"><path fill="#DAE0F5" d="M190.259 47.6475L206.629 57.082V54.8891L190.259 45.4551V47.6475ZM188.2 41.6427L208.689 53.4502V51.9482L188.2 40.1418V41.6427Z"/><path fill="#DAE0F5" d="M229.179 41.6427L208.689 53.4502V51.9482L229.179 40.1418V41.6427ZM190.259 52.6264L206.629 62.0604V59.8691L190.259 50.4341V52.6264ZM190.259 57.6048L206.629 67.0393V64.8475L190.259 55.4141V57.6048ZM190.259 62.5832L206.629 72.0177V69.827L190.259 60.3919V62.5832ZM190.259 67.5627L206.629 76.9961V74.8037L190.259 65.3709V67.5627ZM190.259 72.5411L206.629 81.975V79.7832L190.259 70.3492V72.5411ZM190.259 77.52L206.629 86.9534V84.7616L190.259 75.3282V77.52Z"/></g><path fill="#F6F6FB" d="M232.885 35.1414L208.689 21.1997L184.494 35.1414L208.689 49.0836L232.885 35.1414Z"/><path fill="#DAE0F5" d="M219.183 35.935L208.689 29.889L198.196 35.935L208.689 41.9826L219.183 35.935Z"/><path fill="#BBC0E6" d="M196.818 35.1414L208.689 28.3007V29.889L198.196 35.935L196.818 35.1414Z"/><path fill="#CED3F8" d="M220.56 35.1414L208.689 28.3007V29.889L219.183 35.935L220.56 35.1414Z"/><path fill="#BBC0E6" d="M232.885 35.1414L208.689 49.0836V51.9482L232.885 38.0065V35.1414Z"/><path fill="#CED3F8" d="M184.494 35.1414L208.689 49.0836V51.9482L184.494 38.0065V35.1414Z"/><path style="mix-blend-mode:multiply" fill="url(#paint27_linear_20_1336)" d="M126.76 80.3999H102.249L79.6754 67.3919H29.3277L64.1573 87.4614H88.6676L95.544 91.4238L64.1573 109.51H114.504L145.891 91.4238L126.76 80.3999Z"/><path fill="#CED3F8" d="M64.1573 109.51L10.1967 78.4157V49.4038L64.1573 80.4977V109.51Z"/><path fill="#BBC0E6" d="M95.544 91.4237L64.1573 109.51V80.4977L95.544 62.4118V91.4237Z"/><path fill="#F6F6FB" d="M76.4124 51.3875L64.1573 58.4495L29.3277 38.3794L10.1967 49.4038L64.1573 80.4977L95.5434 62.4119L76.4124 51.3875Z"/><g style="mix-blend-mode:multiply"><path fill="#DAE0F5" d="M69.1827 86.5442L67.6073 87.452V83.6215L69.1827 82.7142V86.5442Z"/><path fill="#7F7FF4" d="M73.0008 84.3442L71.426 85.2514V81.4214L73.0008 80.5136V84.3442Z"/><path fill="#DAE0F5" d="M76.8196 82.1436L75.2447 83.0514V79.2208L76.8196 78.3136V82.1436ZM80.6377 79.943L79.0629 80.8508V77.0202L80.6377 76.113V79.943ZM84.4564 77.743L82.8816 78.6502V74.8202L84.4564 73.9124V77.743ZM69.1827 93.8418L67.6073 94.7496V90.9191L69.1827 90.0118V93.8418ZM73.0008 91.6418L71.426 92.549V88.719L73.0008 87.8112V91.6418ZM76.8196 89.4412L75.2447 90.3484V86.5184L76.8196 85.6106V89.4412ZM80.6377 87.2406L79.0629 88.1484V84.3178L80.6377 83.4106V87.2406ZM84.4564 85.0406L82.8816 85.9478V82.1178L84.4564 81.21V85.0406ZM69.1827 101.139L67.6073 102.047V98.2166L69.1827 97.3094V101.139ZM73.0008 98.9388L71.426 99.8466V96.0161L73.0008 95.1088V98.9388ZM76.8196 96.7388L75.2447 97.646V93.816L76.8196 92.9082V96.7388ZM80.6377 94.5382L79.0629 95.446V91.6154L80.6377 90.7082V94.5382ZM84.4564 92.3382L82.8816 93.2454V89.4154L84.4564 88.5076V92.3382ZM90.5185 74.2496L92.0933 73.3423V69.5117L90.5185 70.4195V74.2496ZM86.7004 76.4502L88.2752 75.5424V71.7123L86.7004 72.6196V76.4502ZM90.5185 81.5472L92.0933 80.6399V76.8093L90.5185 77.7166V81.5472ZM86.7004 83.7478L88.2752 82.84V79.0099L86.7004 79.9172V83.7478ZM90.5185 88.8448L92.0933 87.937V84.1069L90.5185 85.0142V88.8448Z"/><path fill="#7F7FF4" d="M86.7004 91.0454L88.2752 90.1376V86.307L86.7004 87.2148V91.0454Z"/></g><g style="mix-blend-mode:multiply"><path fill="#DAE0F5" d="M58.449 86.2394L60.0238 87.1472V83.3167L58.449 82.4094V86.2394ZM39.6316 72.211V74.7515L56.7817 84.6342V82.0936L39.6316 72.211ZM39.6316 79.5086V82.0491L56.7817 91.9318V89.3912L39.6316 79.5086ZM39.6316 86.8056V89.3467L56.7817 99.2294V96.6888L39.6316 86.8056ZM34.7223 69.3821V71.9227L17.5721 62.04V59.4995L34.7223 69.3821ZM34.7223 76.6797V79.2203L17.5721 69.3376V66.7971L34.7223 76.6797ZM34.7223 83.9773V86.5179L17.5721 76.6352V74.0947L34.7223 83.9773ZM58.449 93.537L60.0238 94.4448V90.6143L58.449 89.707V93.537ZM58.449 100.835L60.0238 101.742V97.9119L58.449 97.0046V100.835ZM36.3895 73.5285L37.9643 74.4357V70.6057L36.3895 69.6979V73.5285ZM36.3895 80.8255L37.9643 81.7333V77.9028L36.3895 76.9955V80.8255ZM36.3895 88.1231L37.9643 89.0309V85.2004L36.3895 84.2931V88.1231ZM14.3301 60.817L15.9049 61.7243V57.8942L14.3301 56.9864V60.817ZM14.3301 68.1146L15.9049 69.0219V65.1918L14.3301 64.284V68.1146ZM14.3301 75.4117L15.9049 76.3195V72.4889L14.3301 71.5816V75.4117Z"/></g><path style="mix-blend-mode:multiply" fill="url(#paint28_linear_20_1336)" d="M111.534 153.646H96.9031L129.678 172.532L109.048 184.419H123.679L144.307 172.532L111.534 153.646Z"/><path fill="#BBC0E6" d="M129.678 172.532L109.048 184.419V175.99L129.678 164.102V172.532Z"/><path fill="#CED3F8" d="M109.048 184.419L76.2737 165.534V157.103L109.048 175.99V184.419Z"/><g style="mix-blend-mode:multiply"><path fill="#DAE0F5" d="M105.08 176.932V178.902L94.0187 172.529V170.558L105.08 176.932Z"/></g><g style="mix-blend-mode:multiply"><path fill="#DAE0F5" d="M92.5269 169.699V171.669L86.0951 167.963V165.993L92.5269 169.699Z"/></g><g style="mix-blend-mode:multiply"><path fill="#DAE0F5" d="M84.4669 165.054V167.025L81.2524 165.172V163.201L84.4669 165.054Z"/></g><path fill="#F6F6FB" d="M109.048 175.99L76.2737 157.103L96.9031 145.216L129.678 164.102L109.048 175.99Z"/><path style="mix-blend-mode:multiply" fill="url(#paint29_linear_20_1336)" d="M118.792 163.201L113.472 162.441L110.265 167.392L118.792 166.293V163.201Z"/><g style="mix-blend-mode:multiply"><path fill="#EAEEF9" d="M120.026 158.497L113.417 154.731L103.246 154.136L107.815 151.503L96.9069 145.213L76.2737 157.103L87.1852 163.391L94.6454 159.092L95.719 159.234L120.026 158.497Z"/></g><path fill="url(#paint30_linear_20_1336)" d="M100.569 156.347L98.4234 137.071H93.7953L91.6504 156.347C91.6298 156.445 91.6188 156.544 91.6174 156.644V156.645C91.6174 157.308 92.0565 157.97 92.9336 158.476C93.9178 158.974 95.0059 159.234 96.1096 159.234C97.2133 159.234 98.3014 158.974 99.2856 158.476C100.294 157.894 100.72 157.105 100.568 156.347H100.569Z"/><g style="mix-blend-mode:multiply"><path fill="#EAEEF9" d="M92.139 151.958L91.6504 156.347C91.6298 156.445 91.6188 156.544 91.6174 156.644V156.645C91.6174 157.308 92.0565 157.97 92.9336 158.476C93.467 158.769 94.0446 158.974 94.6437 159.083L94.696 159.07C94.4357 158.266 91.8303 154.731 92.139 151.958Z"/></g><path fill="url(#paint31_linear_20_1336)" d="M114.625 164.193H114.631L113.036 160.549H107.494L105.899 164.193H105.904C105.549 165.041 105.94 165.97 107.09 166.633C108.074 167.131 109.162 167.391 110.266 167.391C111.369 167.391 112.457 167.131 113.441 166.633C114.591 165.97 114.982 165.041 114.625 164.193Z"/><path fill="#CED3F8" d="M94.4732 136.128C94.9802 135.871 95.5406 135.738 96.1091 135.738C96.6776 135.738 97.238 135.871 97.745 136.128C98.6496 136.649 98.6496 137.493 97.745 138.014C97.238 138.271 96.6776 138.405 96.1091 138.405C95.5406 138.405 94.9802 138.271 94.4732 138.014C93.5692 137.493 93.5692 136.649 94.4732 136.128Z"/><path fill="url(#paint32_linear_20_1336)" d="M94.9574 136.407C95.3144 136.226 95.7092 136.132 96.1096 136.132C96.5101 136.132 96.9048 136.226 97.2618 136.407C97.401 136.454 97.522 136.543 97.6077 136.662C97.6933 136.782 97.7394 136.924 97.7394 137.071C97.7394 137.218 97.6933 137.361 97.6077 137.48C97.522 137.599 97.401 137.688 97.2618 137.735C96.9047 137.916 96.51 138.01 96.1096 138.01C95.7092 138.01 95.3145 137.916 94.9574 137.735C94.8182 137.688 94.6972 137.599 94.6116 137.48C94.5259 137.361 94.4798 137.218 94.4798 137.071C94.4798 136.924 94.5259 136.782 94.6116 136.662C94.6972 136.543 94.8182 136.454 94.9574 136.407Z"/><path fill="#CED3F8" d="M108.287 159.631C108.9 159.32 109.578 159.158 110.266 159.158C110.953 159.158 111.631 159.32 112.245 159.631C113.337 160.26 113.337 161.282 112.245 161.911C111.631 162.222 110.953 162.383 110.266 162.383C109.578 162.383 108.9 162.222 108.287 161.911C107.193 161.282 107.193 160.26 108.287 159.631Z"/><path fill="url(#paint33_linear_20_1336)" d="M108.779 159.914C109.239 159.681 109.748 159.559 110.265 159.559C110.781 159.559 111.29 159.681 111.751 159.914C112.572 160.387 112.572 161.154 111.751 161.626C111.291 161.86 110.781 161.982 110.265 161.982C109.748 161.982 109.239 161.86 108.779 161.626C107.958 161.154 107.958 160.387 108.779 159.914Z"/><path style="mix-blend-mode:multiply" fill="url(#paint34_linear_20_1336)" d="M18.3596 110.182H60.0238V131.341H18.3596V110.182Z"/><path fill="url(#paint35_linear_20_1336)" d="M36.7192 87.6448H0V120.761C0 123.469 1.79271 126.176 5.37757 128.242C8.96244 130.308 13.661 131.341 18.3596 131.341C23.0581 131.341 27.7567 130.308 31.3416 128.242C34.9264 126.176 36.7192 123.469 36.7192 120.761V87.6448Z"/><path fill="url(#paint36_linear_20_1336)" d="M31.3421 122.952C27.7567 125.018 23.0581 126.051 18.3596 126.051C13.661 126.051 8.96244 125.019 5.37757 122.953C1.79271 120.887 0 118.179 0 115.472V116.805C0 119.512 1.79271 122.22 5.37757 124.286C8.96244 126.352 13.661 127.385 18.3596 127.385C23.0581 127.385 27.7567 126.352 31.3416 124.286C34.9264 122.22 36.7192 119.512 36.7192 116.805V115.472C36.7192 118.179 34.9264 120.887 31.3416 122.953L31.3421 122.952Z"/><path fill="url(#paint37_linear_20_1336)" d="M31.3421 118.818C27.7567 120.884 23.0581 121.917 18.3596 121.917C13.661 121.917 8.96244 120.884 5.37757 118.818C1.79271 116.752 0 114.045 0 111.338V112.671C0 115.379 1.79271 118.086 5.37757 120.152C8.96244 122.218 13.661 123.251 18.3596 123.251C23.0581 123.251 27.7567 122.218 31.3416 120.152C34.9264 118.086 36.7192 115.379 36.7192 112.671V111.338C36.7192 114.045 34.927 116.753 31.3421 118.818Z"/><path fill="url(#paint38_linear_20_1336)" d="M31.3421 114.685C27.7567 116.75 23.0581 117.783 18.3596 117.783C13.661 117.783 8.96244 116.751 5.37757 114.685C1.79271 112.619 0 109.911 0 107.204V108.537C0 111.244 1.79271 113.952 5.37757 116.018C8.96244 118.084 13.661 119.117 18.3596 119.117C23.0581 119.117 27.7567 118.084 31.3416 116.018C34.9264 113.952 36.7192 111.245 36.7192 108.537V107.204C36.7192 109.911 34.927 112.619 31.3421 114.685Z"/><path fill="url(#paint39_linear_20_1336)" d="M31.3421 110.55C27.7567 112.616 23.0581 113.649 18.3596 113.649C13.661 113.649 8.96244 112.616 5.37757 110.55C1.79271 108.484 0 105.777 0 103.07V104.403C0 107.111 1.79271 109.818 5.37757 111.884C8.96244 113.949 13.661 114.983 18.3596 114.983C23.0581 114.983 27.7567 113.95 31.3416 111.884C34.9264 109.818 36.7192 107.111 36.7192 104.403V103.07C36.7192 105.777 34.927 108.485 31.3421 110.55Z"/><path fill="url(#paint40_linear_20_1336)" d="M31.3421 106.416C27.7567 108.482 23.0581 109.515 18.3596 109.515C13.661 109.515 8.96244 108.483 5.37757 106.417C1.79271 104.351 0 101.643 0 98.9355V100.269C0 102.976 1.79271 105.684 5.37757 107.75C8.96244 109.816 13.661 110.849 18.3596 110.849C23.0581 110.849 27.7567 109.816 31.3416 107.75C34.9264 105.684 36.7192 102.977 36.7192 100.269V98.9355C36.7192 101.643 34.9264 104.351 31.3416 106.417L31.3421 106.416Z"/><path fill="url(#paint41_linear_20_1336)" d="M31.3421 102.282C27.7567 104.348 23.0581 105.381 18.3596 105.381C13.661 105.381 8.96244 104.348 5.37757 102.282C1.79271 100.216 0 97.5093 0 94.8018V96.1352C0 98.8427 1.79271 101.55 5.37757 103.616C8.96244 105.682 13.661 106.715 18.3596 106.715C23.0581 106.715 27.7567 105.682 31.3416 103.616C34.9264 101.55 36.7192 98.8427 36.7192 96.1352V94.8018C36.7192 97.5093 34.927 100.217 31.3421 102.282Z"/><path fill="url(#paint42_linear_20_1336)" d="M31.3421 98.1486C27.7567 100.214 23.0581 101.247 18.3596 101.247C13.661 101.247 8.96244 100.215 5.37757 98.1486C1.79271 96.0825 0 93.375 0 90.6675V92.001C0 94.7085 1.79271 97.4159 5.37757 99.482C8.96244 101.548 13.661 102.58 18.3596 102.58C23.0581 102.58 27.7567 101.548 31.3416 99.482C34.9264 97.4159 36.7192 94.709 36.7192 92.001V90.6675C36.7192 93.375 34.927 96.0825 31.3421 98.1486Z"/><path fill="#F6F6FB" d="M5.37757 80.1643C8.96244 78.0983 13.661 77.0653 18.3596 77.0653C23.0581 77.0653 27.7567 78.0983 31.3416 80.1643C34.9264 82.2298 36.7192 84.9373 36.7192 87.6448C36.7192 90.3523 34.9264 93.0598 31.3416 95.1258C27.7567 97.1919 23.0581 98.2243 18.3596 98.2243C13.661 98.2243 8.96244 97.1919 5.37757 95.1258C1.79271 93.0598 0 90.3523 0 87.6448C0 84.9373 1.79216 82.2298 5.37757 80.1643Z"/><path fill="#807DFB" d="M10.743 81.7443C13.0852 80.5006 15.707 79.8748 18.3595 79.9265C21.0121 79.8749 23.6339 80.5006 25.9761 81.7443C28.0791 82.9564 29.1307 84.5452 29.1307 86.1334C29.1307 87.7217 28.0797 89.3105 25.9761 90.5225C23.6339 91.7662 21.0121 92.392 18.3595 92.3403C15.707 92.392 13.0852 91.7662 10.743 90.5225C8.63941 89.3105 7.58789 87.7217 7.58789 86.1334C7.58789 84.5452 8.63941 82.9564 10.743 81.7443Z"/><path fill="url(#paint43_linear_20_1336)" d="M25.9761 90.5225C23.6339 91.7663 21.0121 92.392 18.3595 92.3404C15.707 92.392 13.0852 91.7663 10.743 90.5225C8.63941 89.3105 7.58789 87.7217 7.58789 86.1334V87.6448C7.58789 89.2336 8.63941 90.8219 10.743 92.0339C13.0852 93.2776 15.707 93.9033 18.3595 93.8517C21.0121 93.9033 23.6339 93.2776 25.9761 92.0339C28.0791 90.8219 29.1312 89.2331 29.1307 87.6448V86.1334C29.1307 87.7222 28.0797 89.3105 25.9761 90.5225Z"/><path style="mix-blend-mode:multiply" fill="url(#paint44_linear_20_1336)" d="M145.279 209.856H129.678L139.58 215.563L129.678 221.269H145.279L155.179 215.563L145.279 209.856Z"/><path fill="#BBC0E6" d="M129.678 221.269L139.58 215.563V203.977L129.678 209.68V221.269Z"/><path fill="#CED3F8" d="M129.678 221.269L119.775 215.563V203.977L129.678 209.68V221.269Z"/><path fill="#F6F6FB" d="M129.678 209.68L119.775 203.977L129.678 198.272L139.58 203.977L129.678 209.68Z"/><path fill="#BBC0E6" d="M221.397 215.259L170.194 244.764V212.715L221.397 183.21V215.259Z"/><path fill="#CED3F8" d="M170.194 244.764L145.684 230.641V198.592L170.194 212.715V244.764Z"/><path fill="#F6F6FB" d="M221.397 183.21L196.888 169.087L145.684 198.592L170.194 212.715L221.397 183.21Z"/><path style="mix-blend-mode:multiply" fill="url(#paint45_linear_20_1336)" d="M175.987 193.069H173.888L181.454 197.43L173.888 201.79H175.987L183.553 197.43L175.987 193.069Z"/><path style="mix-blend-mode:multiply" fill="url(#paint46_linear_20_1336)" d="M196.97 180.978H194.87L202.437 185.339L194.87 189.699H196.97L204.537 185.339L196.97 180.978Z"/><g style="mix-blend-mode:multiply"><path fill="#7F7FF4" d="M176.635 216.355L174.685 217.479V215.231L176.635 214.108V216.355Z"/><path fill="#DAE0F5" d="M182.388 213.04L180.438 214.164V211.917L182.388 210.792V213.04ZM188.141 209.725L186.191 210.848V208.601L188.141 207.477V209.725ZM193.894 206.409L191.944 207.533V205.286L193.894 204.162V206.409ZM199.648 203.094L197.698 204.218V201.97L199.648 200.847V203.094ZM205.401 199.779L203.451 200.903V198.655L205.401 197.532V199.779ZM211.154 196.464L209.204 197.587V195.34L211.154 194.216V196.464ZM216.907 193.149L214.957 194.272V192.024L216.907 190.901V193.149ZM176.635 221.461L174.685 222.585V220.337L176.635 219.213V221.461ZM182.388 218.145L180.438 219.269V217.022L182.388 215.898V218.145ZM188.141 214.83L186.191 215.954V213.706L188.141 212.583V214.83ZM193.894 211.515L191.944 212.639V210.391L193.894 209.267V211.515ZM199.648 208.2L197.698 209.323V207.076L199.648 205.952V208.2ZM205.401 204.884L203.451 206.008V203.761L205.401 202.637V204.884Z"/><path fill="#7F7FF4" d="M211.154 201.569L209.204 202.693V200.446L211.154 199.321V201.569Z"/><path fill="#DAE0F5" d="M216.907 198.254L214.957 199.377V197.13L216.907 196.007V198.254ZM176.635 226.566L174.685 227.69V225.442L176.635 224.319V226.566ZM182.388 223.251L180.438 224.375V222.127L182.388 221.003V223.251ZM188.141 219.936L186.191 221.059V218.812L188.141 217.689V219.936ZM193.894 216.62L191.944 217.744V215.497L193.894 214.373V216.62ZM199.648 213.305L197.698 214.429V212.181L199.648 211.058V213.305ZM205.401 209.99L203.451 211.114V208.866L205.401 207.743V209.99ZM211.154 206.675L209.204 207.798V205.551L211.154 204.427V206.675ZM216.907 203.36L214.957 204.483V202.235L216.907 201.112V203.36ZM176.635 231.672L174.685 232.796V230.548L176.635 229.424V231.672ZM182.388 228.356L180.438 229.48V227.233L182.388 226.109V228.356ZM188.141 225.041L186.191 226.165V223.917L188.141 222.794V225.041Z"/><path fill="#7F7FF4" d="M193.894 221.726L191.944 222.85V220.602L193.894 219.478V221.726Z"/><path fill="#DAE0F5" d="M199.648 218.411L197.698 219.534V217.287L199.648 216.163V218.411ZM205.401 215.095L203.451 216.219V213.972L205.401 212.848V215.095ZM211.154 211.78L209.204 212.904V210.657L211.154 209.533V211.78ZM216.907 208.465L214.957 209.589V207.341L216.907 206.218V208.465ZM176.635 236.777L174.685 237.901V235.654L176.635 234.53V236.777ZM182.388 233.462L180.438 234.586V232.338L182.388 231.214V233.462ZM188.141 230.147L186.191 231.27V229.023L188.141 227.899V230.147ZM193.894 226.831L191.944 227.955V225.708L193.894 224.584V226.831ZM199.648 223.516L197.698 224.64V222.392L199.648 221.269V223.516ZM205.401 220.201L203.451 221.325V219.077L205.401 217.954V220.201ZM211.154 216.886L209.204 218.009V215.762L211.154 214.638V216.886ZM216.907 213.571L214.957 214.694V212.447L216.907 211.323V213.571Z"/></g><g style="mix-blend-mode:multiply"><path fill="#DAE0F5" d="M150.284 208.593L148.334 207.47V205.222L150.284 206.346V208.593ZM156.038 211.909L154.088 210.785V208.537L156.038 209.661V211.909ZM161.791 215.224L159.841 214.1V211.853L161.791 212.976V215.224ZM167.544 218.539L165.594 217.416V215.168L167.544 216.291V218.539ZM150.284 213.699L148.334 212.575V210.328L150.284 211.451V213.699ZM156.038 217.014L154.088 215.89V213.643L156.038 214.767V217.014ZM161.791 220.33L159.841 219.205V216.958L161.791 218.082V220.33ZM167.544 223.644L165.594 222.521V220.274L167.544 221.397V223.644ZM150.284 218.804L148.334 217.681V215.433L150.284 216.557V218.804ZM156.038 222.119L154.088 220.996V218.748L156.038 219.872V222.119ZM161.791 225.435L159.841 224.311V222.064L161.791 223.188V225.435ZM167.544 228.75L165.594 227.627V225.379L167.544 226.503V228.75ZM150.284 223.91L148.334 222.786V220.539L150.284 221.662V223.91ZM156.038 227.225L154.088 226.101V223.854L156.038 224.978V227.225ZM161.791 230.541L159.841 229.416V227.169L161.791 228.293V230.541ZM167.544 233.855L165.594 232.732V230.485L167.544 231.608V233.855ZM150.284 229.015L148.334 227.892V225.644L150.284 226.768V229.015ZM156.038 232.33L154.088 231.207V228.959L156.038 230.083V232.33ZM161.791 235.646L159.841 234.522V232.275L161.791 233.399V235.646ZM167.544 238.961L165.594 237.838V235.59L167.544 236.714V238.961Z"/></g><path fill="#fff" d="M172.212 190.894L164.645 195.254L173.888 200.58L181.454 196.22L172.212 190.894Z"/><path fill="#BBC0E6" d="M181.454 196.22L173.888 200.58V201.79L181.454 197.43V196.22Z"/><path fill="#CED3F8" d="M164.645 195.254L173.888 200.58V201.79L164.645 196.464V195.254Z"/><path fill="#fff" d="M185.628 183.163L193.194 178.803L202.437 184.129L194.87 188.489L185.628 183.163Z"/><path fill="#CED3F8" d="M185.628 183.163L194.87 188.489V189.699L185.628 184.373V183.163Z"/><path fill="#BBC0E6" d="M202.437 184.129L194.87 188.489V189.699L202.437 185.339V184.129Z"/><path style="mix-blend-mode:multiply" fill="url(#paint47_linear_20_1336)" d="M47.2982 216.721H31.9012L42.7152 222.954L31.9012 229.186H47.2982L58.1128 222.954L47.2982 216.721Z"/><path style="mix-blend-mode:multiply" fill="url(#paint48_linear_20_1336)" d="M64.5898 206.757H49.1933L60.0073 212.99L49.1933 219.222H64.5898L75.4044 212.99L64.5898 206.757Z"/><path fill="#D3D8F2" d="M49.1933 219.222L38.3793 212.99V203.642L49.1933 209.873V219.222Z"/><path fill="#F1F1F6" d="M49.1933 209.873L60.0079 203.642L49.1933 197.415L38.3793 203.642L49.1933 209.873Z"/><path fill="#EAEEF9" d="M49.1933 209.873L54.6011 201.667L43.786 195.438L38.3793 203.642L49.1933 209.873Z"/><path fill="#DCE1F4" d="M54.6011 201.668L60.0079 203.642L49.1933 197.415L43.786 195.438L54.6011 201.668Z"/><path fill="#BDC1E4" d="M54.6011 201.667L60.0079 203.642V212.99L49.1933 219.222V209.873L54.6011 201.667Z"/><path fill="#D3D8F2" d="M31.9012 229.186L21.0872 222.954V213.606L31.9012 219.837V229.186Z"/><path fill="#F1F1F6" d="M31.9012 219.837L42.7158 213.606L31.9012 207.38L21.0872 213.606L31.9012 219.837Z"/><path fill="#EAEEF9" d="M31.9012 219.837L37.309 211.632L26.4939 205.403L21.0872 213.606L31.9012 219.837Z"/><path fill="#DCE1F4" d="M37.309 211.632L42.7158 213.606L31.9012 207.38L26.4939 205.403L37.309 211.632Z"/><path fill="#BDC1E4" d="M37.309 211.632L42.7158 213.606V222.954L31.9012 229.186V219.837L37.309 211.632Z"/><g style="mix-blend-mode:multiply"><path fill="#EAEEF9" d="M94.0187 175.759L87.1852 163.391L76.2737 157.103V165.534L94.0187 175.759Z"/></g><path fill="#BBC0E6" d="M224.569 228.669L234.471 222.964V211.378L224.569 217.082V228.669Z"/><path fill="#CED3F8" d="M224.569 228.669L214.667 222.964V211.378L224.569 217.082V228.669Z"/><path fill="#F6F6FB" d="M224.569 217.082L214.667 211.378L224.569 205.673L234.471 211.378L224.569 217.082Z"/><path style="mix-blend-mode:multiply" fill="url(#paint49_linear_20_1336)" d="M215.74 109.838H226.99V110.535H215.74V109.838Z"/><path fill="#34318D" d="M215.74 110.535L215.187 110.216V103.989L215.74 104.308V110.535Z"/><path fill="#1E1C6B" d="M215.74 110.535L216.294 110.216V103.989L215.74 104.308V110.535Z"/><path fill="url(#paint50_linear_20_1336)" d="M221.831 102.514L215.74 93.4964C215.74 93.4964 209.555 102.647 209.515 102.713C209.271 103.094 209.139 103.536 209.134 103.989C209.134 104.963 209.78 105.937 211.069 106.68C213.648 108.167 217.831 108.167 220.411 106.68C221.702 105.937 222.346 104.963 222.346 103.989C222.336 103.455 222.156 102.938 221.831 102.514Z"/><path fill="url(#paint51_linear_20_1336)" d="M221.079 98.8663L215.74 90.9635L210.403 98.8663C210.117 99.2372 209.959 99.6898 209.95 100.157C209.95 101.012 210.516 101.865 211.645 102.517C212.914 103.16 214.317 103.495 215.74 103.495C217.163 103.495 218.566 103.16 219.835 102.517C220.964 101.865 221.53 101.012 221.53 100.157C221.521 99.6902 221.363 99.238 221.079 98.8663H221.079Z"/><path fill="url(#paint52_linear_20_1336)" d="M220.399 95.8557C220.368 95.8063 215.74 88.9585 215.74 88.9585C215.74 88.9585 211.111 95.8068 211.081 95.8562C210.899 96.1416 210.8 96.472 210.796 96.8102C210.796 97.5395 211.278 98.2683 212.244 98.8246C213.328 99.373 214.525 99.6587 215.74 99.6587C216.955 99.6587 218.152 99.373 219.236 98.8246C220.201 98.2683 220.683 97.5395 220.683 96.8102C220.679 96.4718 220.581 96.1413 220.399 95.8557Z"/><path style="mix-blend-mode:multiply" fill="url(#paint53_linear_20_1336)" d="M67.2925 205.345H78.5424V206.042H67.2925V205.345Z"/><path fill="#34318D" d="M67.2926 206.042L66.7396 205.723V199.496L67.2926 199.815V206.042Z"/><path fill="#1E1C6B" d="M67.2925 206.042L67.8466 205.723V199.496L67.2925 199.815V206.042Z"/><path fill="url(#paint54_linear_20_1336)" d="M73.3838 198.021L67.2926 189.003C67.2926 189.003 61.1078 198.154 61.0676 198.22C60.8238 198.601 60.6919 199.043 60.6868 199.496C60.6868 200.47 61.3328 201.444 62.6215 202.187C65.2005 203.674 69.3829 203.674 71.9636 202.187C73.2539 201.444 73.8988 200.47 73.8988 199.496C73.8892 198.962 73.7087 198.445 73.3838 198.021Z"/><path fill="url(#paint55_linear_20_1336)" d="M72.6316 194.373L67.2926 186.471L61.9557 194.373C61.6703 194.744 61.5118 195.196 61.5034 195.664C61.5034 196.519 62.0691 197.372 63.1982 198.024C64.4669 198.667 65.8697 199.002 67.2926 199.002C68.7154 199.002 70.1182 198.667 71.387 198.024C72.5166 197.372 73.0834 196.519 73.0834 195.664C73.0741 195.197 72.9158 194.745 72.6316 194.373Z"/><path fill="url(#paint56_linear_20_1336)" d="M71.9521 191.363C71.9207 191.313 67.2926 184.465 67.2926 184.465C67.2926 184.465 62.6644 191.314 62.6336 191.363C62.4517 191.649 62.3532 191.979 62.3491 192.317C62.3491 193.046 62.8311 193.775 63.7974 194.332C64.8807 194.88 66.0782 195.166 67.2928 195.166C68.5075 195.166 69.705 194.88 70.7883 194.332C71.754 193.775 72.2354 193.046 72.2354 192.317C72.2319 191.979 72.1337 191.648 71.9521 191.363Z"/><path style="mix-blend-mode:multiply" fill="url(#paint57_linear_20_1336)" d="M250.368 80.1824H266.978V81.2995H250.368V80.1824Z"/><path fill="#34318D" d="M249.554 70.989L250.368 71.4575V81.2989L249.555 80.8299L249.554 70.989Z"/><path fill="#1E1C6B" d="M251.181 70.989L250.368 71.4575V81.2989L251.181 80.8299L251.181 70.989Z"/><path fill="url(#paint58_radial_20_1336)" d="M242.596 66.4077C242.596 64.8737 243.052 63.3741 243.905 62.0985C244.759 60.823 245.973 59.8288 247.393 59.2416C248.813 58.6545 250.375 58.5008 251.883 58.7999C253.39 59.0991 254.775 59.8377 255.862 60.9223C256.949 62.007 257.689 63.389 257.989 64.8935C258.289 66.398 258.135 67.9575 257.547 69.3748C256.959 70.7921 255.963 72.0035 254.685 72.8559C253.407 73.7082 251.905 74.1632 250.368 74.1634C248.307 74.1634 246.33 73.3462 244.873 71.8917C243.415 70.4371 242.596 68.4648 242.596 66.4077Z"/><path style="mix-blend-mode:multiply" fill="url(#paint59_linear_20_1336)" d="M152.441 53.7523H169.051V54.8693H152.441V53.7523Z"/><path fill="#34318D" d="M151.627 44.5583L152.441 45.0273V54.8688L151.627 54.3998L151.627 44.5583Z"/><path fill="#1E1C6B" d="M153.254 44.5583L152.441 45.0273V54.8688L153.254 54.3998V44.5583Z"/><path fill="url(#paint60_radial_20_1336)" d="M144.669 39.977C144.669 38.443 145.125 36.9434 145.979 35.668C146.833 34.3925 148.046 33.3983 149.466 32.8113C150.886 32.2242 152.449 32.0706 153.956 32.3698C155.463 32.6691 156.848 33.4077 157.935 34.4924C159.022 35.577 159.762 36.959 160.062 38.4635C160.362 39.968 160.208 41.5275 159.62 42.9448C159.032 44.362 158.036 45.5734 156.758 46.4258C155.48 47.2781 153.978 47.7331 152.441 47.7332C150.38 47.7332 148.403 46.916 146.945 45.4615C145.488 44.0069 144.669 42.0341 144.669 39.977Z"/><path fill="#EAEEF9" d="M136.31 27.9081L134 29.2387C132.652 30.0158 130.794 25.7717 129.284 26.6422L125.235 28.974C122.217 30.7133 123.307 25.6492 118.792 28.2513C113.488 31.3086 113.921 37.4447 110.903 39.1845L106.854 41.5164C105.346 42.3868 104.934 45.9873 103.584 46.7649L101.274 48.0956C100.772 48.3856 99.8112 49.1863 99.8106 50.2353L118.792 39.2976L137.773 28.36C137.773 27.3111 136.813 27.6175 136.31 27.9081Z"/><path style="mix-blend-mode:multiply" fill="url(#paint61_linear_20_1336)" d="M185.632 155.197L202.432 164.878C203.29 165.438 204.005 166.192 204.517 167.079C205.03 167.965 205.327 168.959 205.384 169.981V181.056C205.384 182.928 204.056 183.693 202.432 182.757L197.22 179.753L194.032 181.591L190.844 176.08L185.632 173.076C184.774 172.516 184.06 171.762 183.547 170.876C183.035 169.989 182.738 168.995 182.68 167.973V156.897C182.68 155.026 184.008 154.261 185.632 155.196L185.632 155.197Z"/><path fill="#fff" d="M194.569 173.243L193.496 172.624V173.861L194.569 174.48V173.243ZM197.241 174.783L196.168 174.164V175.401L197.241 176.019V174.783ZM190.824 171.085L191.897 171.703V172.94L190.824 172.321V171.085Z"/><g style="mix-blend-mode:screen"><path fill="#E55388" d="M195.844 165.986C194.844 164.256 193.221 163.319 192.22 163.897C191.218 164.473 191.218 166.344 192.22 168.075L194.032 171.208L195.845 170.163C196.846 169.587 196.845 167.717 195.844 165.986ZM194.032 168.425C193.68 168.195 193.388 167.887 193.178 167.523C192.968 167.16 192.846 166.753 192.823 166.334C192.823 165.563 193.365 165.252 194.032 165.637C194.384 165.866 194.677 166.174 194.887 166.538C195.097 166.901 195.218 167.308 195.241 167.727C195.241 168.497 194.7 168.809 194.032 168.425Z"/></g><path style="mix-blend-mode:multiply" fill="url(#paint62_linear_20_1336)" d="M217.089 0.399254L200.29 10.0798C199.432 10.6404 198.718 11.3942 198.205 12.2807C197.692 13.1671 197.395 14.1614 197.338 15.1834V26.2583C197.338 28.1299 198.666 28.8955 200.29 27.9597L205.502 24.9556L208.69 26.7932L211.878 21.2821L217.09 18.2786C217.948 17.7181 218.662 16.9643 219.175 16.078C219.688 15.1916 219.985 14.1975 220.043 13.1755V2.10009C220.043 0.229006 218.714 -0.536012 217.09 0.399254H217.089Z"/><path fill="#fff" d="M208.153 18.445L209.226 17.8266V19.0634L208.153 19.6818V18.445ZM205.481 19.9849L206.554 19.3665V20.6033L205.481 21.2211V19.9849ZM211.898 16.2872L210.825 16.9056V18.1418L211.898 17.5235V16.2872Z"/><g style="mix-blend-mode:screen"><path fill="#5555C6" d="M206.877 15.3662L208.69 16.4102L210.502 13.2771C211.503 11.5461 211.503 9.67556 210.502 9.09947C209.501 8.52227 207.878 9.45863 206.877 11.1886C205.876 12.9196 205.875 14.7896 206.877 15.3662ZM207.48 12.9295C207.503 12.5107 207.625 12.1031 207.835 11.7398C208.045 11.3766 208.338 11.0679 208.69 10.8387C209.357 10.4543 209.899 10.7657 209.899 11.5362C209.876 11.955 209.755 12.3625 209.544 12.7257C209.334 13.089 209.042 13.3977 208.69 13.627C208.022 14.0114 207.48 13.6989 207.48 12.9295Z"/></g><g style="mix-blend-mode:multiply"><path fill="#CED3F8" d="M62.4972 61.8429C61.3818 61.2014 60.4783 61.7221 60.4783 63.0061C60.5164 63.705 60.719 64.3852 61.0696 64.9913C61.4203 65.5975 61.9092 66.1127 62.4966 66.4951C63.612 67.1376 64.5155 66.617 64.5149 65.3324C64.4772 64.6334 64.2749 63.9531 63.9243 63.3468C63.5737 62.7404 63.0847 62.2252 62.4972 61.8429ZM59.7267 58.6181C59.2967 58.7417 58.9143 58.9925 58.63 59.3375L59.4829 60.4677C59.704 60.1984 60.0021 60.0026 60.3374 59.9065C61.9194 59.4468 64.1738 61.1147 65.3651 63.6234L66.1767 63.3872C64.6497 60.1673 61.7554 58.0282 59.7267 58.6181ZM63.4728 57.0512C61.6261 55.6838 59.7839 55.1703 58.2922 55.6041C57.6405 55.7909 57.061 56.1709 56.6304 56.6937L57.4828 57.8234C57.8507 57.3768 58.3457 57.052 58.9024 56.892C60.1784 56.5207 61.7521 56.9634 63.3308 58.1293C65.0232 59.4381 66.374 61.1354 67.2684 63.0769L68.0805 62.8408C67.0345 60.5685 65.4537 58.5823 63.4728 57.0512ZM56.8577 52.5891C55.9842 52.8399 55.2075 53.3492 54.6303 54.0499L55.4832 55.1801C55.9972 54.5555 56.6894 54.1015 57.4679 53.8786C61.1529 52.8077 66.4039 56.691 69.1739 62.5316L69.9866 62.2965C66.8788 55.7431 60.9889 51.3897 56.8577 52.5891ZM55.4237 49.5757C54.3284 49.8898 53.3543 50.5283 52.6301 51.4067L53.4825 52.5369C54.1438 51.7343 55.0338 51.151 56.0345 50.8641C60.7688 49.4873 67.5176 54.4777 71.0783 61.9862L71.8916 61.7506C67.9931 53.5315 60.606 48.0698 55.4237 49.5751V49.5757ZM321.23 150.054C320.115 149.413 319.212 149.934 319.212 151.218C319.25 151.917 319.452 152.597 319.803 153.203C320.153 153.81 320.642 154.325 321.23 154.707C322.345 155.35 323.249 154.828 323.248 153.545C323.21 152.845 323.008 152.165 322.657 151.559C322.307 150.953 321.818 150.437 321.23 150.054ZM318.46 146.83C318.03 146.953 317.647 147.204 317.363 147.55L318.216 148.679C318.437 148.41 318.735 148.215 319.071 148.119C320.653 147.658 322.907 149.327 324.098 151.835L324.91 151.599C323.383 148.379 320.489 146.24 318.46 146.83ZM322.206 145.263C320.359 143.895 318.517 143.382 317.025 143.816C316.374 144.002 315.794 144.383 315.364 144.906L316.216 146.035C316.584 145.589 317.079 145.264 317.636 145.104C318.912 144.732 320.485 145.175 322.064 146.341C323.757 147.65 325.107 149.347 326.002 151.289L326.814 151.053C325.768 148.781 324.187 146.794 322.206 145.263ZM315.591 140.801C314.717 141.052 313.941 141.561 313.363 142.262L314.216 143.392C314.73 142.767 315.422 142.313 316.201 142.09C319.886 141.019 325.137 144.903 327.907 150.743L328.72 150.508C325.612 143.955 319.722 139.601 315.591 140.801ZM314.157 137.787C313.061 138.101 312.087 138.74 311.363 139.619L312.216 140.748C312.877 139.946 313.767 139.363 314.768 139.076C319.502 137.699 326.251 142.69 329.812 150.198L330.624 149.963C326.726 141.743 319.339 136.281 314.157 137.787V137.787Z"/></g><path fill="#423EAF" d="M16.8624 237.801C16.8521 237.341 16.9378 236.883 17.1138 236.458C15.8499 236.32 14.9579 237.23 14.9579 238.899C15.0228 240.092 15.3687 241.254 15.9674 242.289C16.5662 243.324 17.401 244.204 18.4041 244.857C19.8513 245.69 21.0877 245.374 21.5978 244.212C21.1408 244.151 20.7013 243.997 20.3069 243.759C19.3039 243.106 18.4693 242.226 17.8708 241.191C17.2723 240.156 16.9268 238.994 16.8624 237.801Z"/><path fill="url(#paint63_linear_20_1336)" d="M25.4732 236.81C22.6207 231.879 17.9965 229.211 15.1412 230.856L13.2379 231.953C16.0915 230.308 20.7169 232.976 23.5699 237.908C26.4202 242.836 26.4219 248.161 23.5754 249.81L25.4732 248.717C28.3274 247.073 28.3257 241.742 25.4732 236.81Z"/><path fill="#5652CC" d="M23.5699 237.908C20.7174 232.976 16.092 230.308 13.2379 231.953C10.3838 233.597 10.3838 238.928 13.2379 243.861L18.4036 252.79L23.5699 249.814C26.4224 248.171 26.4218 242.84 23.5699 237.908ZM18.4042 244.857C17.401 244.204 16.5661 243.324 15.9673 242.289C15.3686 241.253 15.0228 240.092 14.958 238.898C14.958 236.704 16.5014 235.815 18.4042 236.911C19.4074 237.564 20.2422 238.444 20.8409 239.48C21.4395 240.515 21.7852 241.677 21.8498 242.87C21.8498 245.063 20.3069 245.953 18.4042 244.857Z"/><path style="mix-blend-mode:multiply" fill="url(#paint64_linear_20_1336)" d="M31.5876 248.581C27.749 248.581 25.81 248.741 23.5754 249.81L18.4036 252.79L31.357 255.279L31.5876 248.581Z"/><path fill="url(#paint65_linear_20_1336)" d="M377.169 263.501L338.661 285.692V322H377.169V263.501Z"/><path fill="#F0F3F8" d="M338.661 285.692L300.154 263.501L338.659 241.313L377.169 263.501L338.661 285.692Z"/><path fill="url(#paint66_linear_20_1336)" d="M338.661 285.692L300.154 263.501V322H338.661V285.692Z"/><path fill="url(#paint67_linear_20_1336)" d="M114.153 322H141.025V240.792L114.153 256.277V322Z"/><path fill="url(#paint68_linear_20_1336)" d="M114.153 322H87.2825V240.792L114.153 256.277V322Z"/><path fill="#F0F3F8" d="M114.153 256.277L87.2825 240.792L114.153 225.309L141.025 240.792L114.153 256.277Z"/></g><defs><linearGradient id="paint0_linear_20_1336" x1="170.194" x2="272.601" y1="221.678" y2="221.678" gradientUnits="userSpaceOnUse"><stop stop-color="#C4C9E5"/><stop offset=".341" stop-color="#E2E4F2"/><stop offset=".665" stop-color="#F7F8FC"/><stop offset=".877" stop-color="#fff"/></linearGradient><linearGradient id="paint1_linear_20_1336" x1="224.569" x2="250.071" y1="222.963" y2="222.963" gradientUnits="userSpaceOnUse"><stop stop-color="#D1D7F3"/><stop offset=".26" stop-color="#E1E5F7"/><stop offset=".711" stop-color="#F7F8FD"/><stop offset="1" stop-color="#fff"/></linearGradient><linearGradient id="paint2_linear_20_1336" x1="270.099" x2="392" y1="197.201" y2="197.201" gradientUnits="userSpaceOnUse"><stop stop-color="#D3D8F2"/><stop offset="1" stop-color="#fff"/></linearGradient><linearGradient id="paint3_linear_20_1336" x1="51.696" x2="82.082" y1="252.81" y2="200.077" gradientUnits="userSpaceOnUse"><stop stop-color="#fff"/><stop offset="1" stop-color="#EAEEF9"/></linearGradient><linearGradient id="paint4_linear_20_1336" x1="214.23" x2="244.616" y1="159.153" y2="106.421" gradientUnits="userSpaceOnUse"><stop stop-color="#DCE1F4"/><stop offset="1" stop-color="#EAEEF9"/></linearGradient><linearGradient id="paint5_linear_20_1336" x1="336.129" x2="366.515" y1="135.739" y2="83.007" gradientUnits="userSpaceOnUse"><stop stop-color="#EAEEF9"/><stop offset="1" stop-color="#fff"/></linearGradient><linearGradient id="paint6_linear_20_1336" x1="66.933" x2="127.877" y1="162.079" y2="162.079" gradientUnits="userSpaceOnUse"><stop stop-color="#D3D8F2"/><stop offset=".124" stop-color="#D8DDF4"/><stop offset=".587" stop-color="#E5EAF8"/><stop offset="1" stop-color="#EAEEF9"/></linearGradient><linearGradient id="paint7_linear_20_1336" x1="107.565" x2="127.661" y1="138.604" y2="138.604" gradientUnits="userSpaceOnUse"><stop stop-color="#DCE1F4"/><stop offset=".304" stop-color="#EDF0F9"/><stop offset=".672" stop-color="#FAFBFE"/><stop offset="1" stop-color="#fff"/></linearGradient><linearGradient id="paint8_linear_20_1336" x1="342.462" x2="341.11" y1="159.041" y2="163.544" gradientUnits="userSpaceOnUse"><stop offset=".173" stop-color="#F2728D"/><stop offset=".489" stop-color="#E86183"/><stop offset="1" stop-color="#D33D6F"/></linearGradient><linearGradient id="paint9_linear_20_1336" x1="310.099" x2="334.47" y1="165.093" y2="165.093" gradientUnits="userSpaceOnUse"><stop stop-color="#5652CC"/><stop offset=".444" stop-color="#433EAC"/><stop offset=".708" stop-color="#363096"/><stop offset="1" stop-color="#362E93"/></linearGradient><linearGradient id="paint10_linear_20_1336" x1="318.78" x2="324.922" y1="166.8" y2="156.142" gradientUnits="userSpaceOnUse"><stop stop-color="#5652CC"/><stop offset="1" stop-color="#362E93"/></linearGradient><linearGradient id="paint11_linear_20_1336" x1="63.721" x2="88.852" y1="120.928" y2="120.928" gradientUnits="userSpaceOnUse"><stop stop-color="#5652CC"/><stop offset=".444" stop-color="#433EAC"/><stop offset=".708" stop-color="#373096"/><stop offset="1" stop-color="#362E94"/></linearGradient><linearGradient id="paint12_linear_20_1336" x1="72.672" x2="79.005" y1="122.687" y2="111.697" gradientUnits="userSpaceOnUse"><stop stop-color="#5652CC"/><stop offset="1" stop-color="#362E94"/></linearGradient><linearGradient id="paint13_linear_20_1336" x1="148.198" x2="165.522" y1="157.951" y2="157.951" gradientUnits="userSpaceOnUse"><stop stop-color="#BDC1E4"/><stop offset="1" stop-color="#7D87AF"/></linearGradient><linearGradient id="paint14_linear_20_1336" x1="158.356" x2="166.993" y1="173.788" y2="158.799" gradientUnits="userSpaceOnUse"><stop stop-color="#EAEEF9"/><stop offset=".205" stop-color="#D9DEED"/><stop offset=".609" stop-color="#ADB4D0"/><stop offset="1" stop-color="#7D87AF"/></linearGradient><linearGradient id="paint15_linear_20_1336" x1="148.198" x2="168.516" y1="162.943" y2="162.943" gradientUnits="userSpaceOnUse"><stop stop-color="#EAEEF9"/><stop offset=".168" stop-color="#EEF1FA"/><stop offset="1" stop-color="#fff"/></linearGradient><linearGradient id="paint16_linear_20_1336" x1="171.657" x2="171.657" y1="85.053" y2="78.303" gradientUnits="userSpaceOnUse"><stop stop-color="#A7ADCE"/><stop offset="1" stop-color="#F7F7FC"/></linearGradient><linearGradient id="paint17_linear_20_1336" x1="167.011" x2="167.011" y1="85.053" y2="78.303" gradientUnits="userSpaceOnUse"><stop stop-color="#A7ADCE"/><stop offset="1" stop-color="#F7F7FC"/></linearGradient><linearGradient id="paint18_linear_20_1336" x1="167.759" x2="167.759" y1="85.053" y2="81.68" gradientUnits="userSpaceOnUse"><stop stop-color="#BDC1E4"/><stop offset="1" stop-color="#F7F7FC"/></linearGradient><linearGradient id="paint19_linear_20_1336" x1="254.408" x2="301.301" y1="152.469" y2="152.469" gradientUnits="userSpaceOnUse"><stop stop-color="#C4C9E5"/><stop offset=".257" stop-color="#CED2E9"/><stop offset=".691" stop-color="#E8EAF5"/><stop offset="1" stop-color="#fff"/></linearGradient><linearGradient id="paint20_linear_20_1336" x1="286.349" x2="320.145" y1="160.749" y2="160.749" gradientUnits="userSpaceOnUse"><stop stop-color="#D1D7F3"/><stop offset=".26" stop-color="#E1E5F7"/><stop offset=".711" stop-color="#F7F8FD"/><stop offset="1" stop-color="#fff"/></linearGradient><linearGradient id="paint21_linear_20_1336" x1="270.697" x2="300.586" y1="144.762" y2="144.762" gradientUnits="userSpaceOnUse"><stop stop-color="#EAEEF9"/><stop offset=".769" stop-color="#F9FAFD"/><stop offset="1" stop-color="#fff"/></linearGradient><linearGradient id="paint22_linear_20_1336" x1="270.696" x2="280.519" y1="156.104" y2="156.104" gradientUnits="userSpaceOnUse"><stop stop-color="#DCE1F4"/><stop offset=".501" stop-color="#EBEEF9"/><stop offset="1" stop-color="#fff"/></linearGradient><linearGradient id="paint23_linear_20_1336" x1="153.357" x2="179.568" y1="99.555" y2="99.555" gradientUnits="userSpaceOnUse"><stop stop-color="#C4C9E4"/><stop offset=".188" stop-color="#D7DAED"/><stop offset=".477" stop-color="#EDEEF7"/><stop offset=".753" stop-color="#FAFBFD"/><stop offset="1" stop-color="#fff"/></linearGradient><linearGradient id="paint24_linear_20_1336" x1="170.105" x2="196.316" y1="109.205" y2="109.205" gradientUnits="userSpaceOnUse"><stop stop-color="#C4C9E4"/><stop offset=".188" stop-color="#D7DAED"/><stop offset=".477" stop-color="#EDEEF7"/><stop offset=".753" stop-color="#FAFBFD"/><stop offset="1" stop-color="#fff"/></linearGradient><linearGradient id="paint25_linear_20_1336" x1="186.852" x2="213.063" y1="118.855" y2="118.855" gradientUnits="userSpaceOnUse"><stop stop-color="#C4C9E4"/><stop offset=".188" stop-color="#D7DAED"/><stop offset=".477" stop-color="#EDEEF7"/><stop offset=".753" stop-color="#FAFBFD"/><stop offset="1" stop-color="#fff"/></linearGradient><linearGradient id="paint26_linear_20_1336" x1="208.689" x2="269.486" y1="80.538" y2="80.538" gradientUnits="userSpaceOnUse"><stop stop-color="#D3D8F2"/><stop offset=".534" stop-color="#F1F3FB"/><stop offset=".877" stop-color="#fff"/></linearGradient><linearGradient id="paint27_linear_20_1336" x1="29.328" x2="145.891" y1="88.451" y2="88.451" gradientUnits="userSpaceOnUse"><stop stop-color="#C4C9E5"/><stop offset=".755" stop-color="#F6F7FB"/><stop offset=".877" stop-color="#fff"/></linearGradient><linearGradient id="paint28_linear_20_1336" x1="96.903" x2="144.307" y1="169.033" y2="169.033" gradientUnits="userSpaceOnUse"><stop stop-color="#C4C9E5"/><stop offset=".557" stop-color="#E7E9F5"/><stop offset="1" stop-color="#fff"/></linearGradient><linearGradient id="paint29_linear_20_1336" x1="110.265" x2="118.792" y1="164.917" y2="164.917" gradientUnits="userSpaceOnUse"><stop stop-color="#D1D7F3"/><stop offset=".949" stop-color="#fff"/></linearGradient><linearGradient id="paint30_linear_20_1336" x1="91.617" x2="100.598" y1="148.153" y2="148.153" gradientUnits="userSpaceOnUse"><stop stop-color="#CED3F8"/><stop offset="1" stop-color="#BBC0E6"/></linearGradient><linearGradient id="paint31_linear_20_1336" x1="105.777" x2="114.753" y1="163.97" y2="163.97" gradientUnits="userSpaceOnUse"><stop stop-color="#CED3F8"/><stop offset="1" stop-color="#BBC0E6"/></linearGradient><linearGradient id="paint32_linear_20_1336" x1="96.109" x2="96.109" y1="138.01" y2="136.131" gradientUnits="userSpaceOnUse"><stop stop-color="#7D839E"/><stop offset="1" stop-color="#BDC1E4"/></linearGradient><linearGradient id="paint33_linear_20_1336" x1="110.265" x2="110.265" y1="161.982" y2="159.559" gradientUnits="userSpaceOnUse"><stop stop-color="#7D839E"/><stop offset="1" stop-color="#BDC1E4"/></linearGradient><linearGradient id="paint34_linear_20_1336" x1="18.36" x2="60.024" y1="120.761" y2="120.761" gradientUnits="userSpaceOnUse"><stop stop-color="#C4C9E5"/><stop offset="1" stop-color="#fff"/></linearGradient><linearGradient id="paint35_linear_20_1336" x1="0" x2="36.719" y1="109.493" y2="109.493" gradientUnits="userSpaceOnUse"><stop stop-color="#CED3F8"/><stop offset="1" stop-color="#BBC0E6"/></linearGradient><linearGradient id="paint36_linear_20_1336" x1="0" x2="36.719" y1="121.428" y2="121.428" gradientUnits="userSpaceOnUse"><stop stop-color="#807DFB"/><stop offset="1" stop-color="#5652CC"/></linearGradient><linearGradient id="paint37_linear_20_1336" x1="0" x2="36.719" y1="117.294" y2="117.294" gradientUnits="userSpaceOnUse"><stop stop-color="#807DFB"/><stop offset="1" stop-color="#5652CC"/></linearGradient><linearGradient id="paint38_linear_20_1336" x1="0" x2="36.719" y1="113.16" y2="113.16" gradientUnits="userSpaceOnUse"><stop stop-color="#807DFB"/><stop offset="1" stop-color="#5652CC"/></linearGradient><linearGradient id="paint39_linear_20_1336" x1="0" x2="36.719" y1="109.026" y2="109.026" gradientUnits="userSpaceOnUse"><stop stop-color="#807DFB"/><stop offset="1" stop-color="#5652CC"/></linearGradient><linearGradient id="paint40_linear_20_1336" x1="0" x2="36.719" y1="104.892" y2="104.892" gradientUnits="userSpaceOnUse"><stop stop-color="#807DFB"/><stop offset="1" stop-color="#5652CC"/></linearGradient><linearGradient id="paint41_linear_20_1336" x1="0" x2="36.719" y1="100.758" y2="100.758" gradientUnits="userSpaceOnUse"><stop stop-color="#807DFB"/><stop offset="1" stop-color="#5652CC"/></linearGradient><linearGradient id="paint42_linear_20_1336" x1="0" x2="36.719" y1="96.624" y2="96.624" gradientUnits="userSpaceOnUse"><stop stop-color="#807DFB"/><stop offset="1" stop-color="#5652CC"/></linearGradient><linearGradient id="paint43_linear_20_1336" x1="7.588" x2="29.131" y1="89.993" y2="89.993" gradientUnits="userSpaceOnUse"><stop stop-color="#6B67E9"/><stop offset="1" stop-color="#362E94"/></linearGradient><linearGradient id="paint44_linear_20_1336" x1="129.678" x2="155.179" y1="215.562" y2="215.562" gradientUnits="userSpaceOnUse"><stop stop-color="#D1D7F3"/><stop offset=".26" stop-color="#E1E5F7"/><stop offset=".711" stop-color="#F7F8FD"/><stop offset="1" stop-color="#fff"/></linearGradient><linearGradient id="paint45_linear_20_1336" x1="173.887" x2="183.553" y1="197.43" y2="197.43" gradientUnits="userSpaceOnUse"><stop stop-color="#DCE1F4"/><stop offset=".421" stop-color="#E8EBF8"/><stop offset="1" stop-color="#fff"/></linearGradient><linearGradient id="paint46_linear_20_1336" x1="194.87" x2="204.537" y1="185.338" y2="185.338" gradientUnits="userSpaceOnUse"><stop stop-color="#DCE1F4"/><stop offset=".421" stop-color="#E8EBF8"/><stop offset="1" stop-color="#fff"/></linearGradient><linearGradient id="paint47_linear_20_1336" x1="31.901" x2="58.113" y1="222.954" y2="222.954" gradientUnits="userSpaceOnUse"><stop stop-color="#C4C9E4"/><stop offset=".188" stop-color="#D7DAED"/><stop offset=".477" stop-color="#EDEEF7"/><stop offset=".753" stop-color="#FAFBFD"/><stop offset="1" stop-color="#fff"/></linearGradient><linearGradient id="paint48_linear_20_1336" x1="49.193" x2="75.405" y1="212.989" y2="212.989" gradientUnits="userSpaceOnUse"><stop stop-color="#C4C9E4"/><stop offset=".188" stop-color="#D7DAED"/><stop offset=".477" stop-color="#EDEEF7"/><stop offset=".753" stop-color="#FAFBFD"/><stop offset="1" stop-color="#fff"/></linearGradient><linearGradient id="paint49_linear_20_1336" x1="215.74" x2="226.99" y1="110.186" y2="110.186" gradientUnits="userSpaceOnUse"><stop stop-color="#C4C9E5"/><stop offset=".249" stop-color="#D7DAED"/><stop offset=".697" stop-color="#F4F5FA"/><stop offset=".953" stop-color="#fff"/></linearGradient><linearGradient id="paint50_linear_20_1336" x1="209.408" x2="219.844" y1="105.083" y2="99.046" gradientUnits="userSpaceOnUse"><stop stop-color="#6A6AE0"/><stop offset=".365" stop-color="#4B4AB0"/><stop offset=".79" stop-color="#2B297E"/><stop offset="1" stop-color="#1E1C6B"/></linearGradient><linearGradient id="paint51_linear_20_1336" x1="210.191" x2="219.337" y1="101.117" y2="95.826" gradientUnits="userSpaceOnUse"><stop stop-color="#6A6AE0"/><stop offset=".672" stop-color="#35338E"/><stop offset="1" stop-color="#1E1C6B"/></linearGradient><linearGradient id="paint52_linear_20_1336" x1="210.796" x2="220.682" y1="94.309" y2="94.309" gradientUnits="userSpaceOnUse"><stop stop-color="#7F7EF1"/><stop offset=".329" stop-color="#6564CF"/><stop offset="1" stop-color="#34318D"/></linearGradient><linearGradient id="paint53_linear_20_1336" x1="67.293" x2="78.542" y1="205.693" y2="205.693" gradientUnits="userSpaceOnUse"><stop stop-color="#C4C9E5"/><stop offset=".249" stop-color="#D7DAED"/><stop offset=".697" stop-color="#F4F5FA"/><stop offset=".953" stop-color="#fff"/></linearGradient><linearGradient id="paint54_linear_20_1336" x1="60.961" x2="71.397" y1="200.59" y2="194.552" gradientUnits="userSpaceOnUse"><stop stop-color="#6A6AE0"/><stop offset=".365" stop-color="#4B4AB0"/><stop offset=".79" stop-color="#2B297E"/><stop offset="1" stop-color="#1E1C6B"/></linearGradient><linearGradient id="paint55_linear_20_1336" x1="61.744" x2="70.89" y1="196.624" y2="191.333" gradientUnits="userSpaceOnUse"><stop stop-color="#6A6AE0"/><stop offset=".672" stop-color="#35338E"/><stop offset="1" stop-color="#1E1C6B"/></linearGradient><linearGradient id="paint56_linear_20_1336" x1="62.349" x2="72.235" y1="189.816" y2="189.816" gradientUnits="userSpaceOnUse"><stop stop-color="#7F7EF1"/><stop offset=".329" stop-color="#6564CF"/><stop offset="1" stop-color="#34318D"/></linearGradient><linearGradient id="paint57_linear_20_1336" x1="250.368" x2="266.978" y1="80.74" y2="80.74" gradientUnits="userSpaceOnUse"><stop stop-color="#C4C9E5"/><stop offset=".076" stop-color="#C9CEE7"/><stop offset=".683" stop-color="#F0F1F8"/><stop offset="1" stop-color="#fff"/></linearGradient><radialGradient id="paint58_radial_20_1336" cx="0" cy="0" r="1" gradientTransform="translate(246.248 63.4372) scale(12.6535 12.6291)" gradientUnits="userSpaceOnUse"><stop stop-color="#7F7EF1"/><stop offset="1" stop-color="#34318D"/></radialGradient><linearGradient id="paint59_linear_20_1336" x1="152.441" x2="169.051" y1="54.31" y2="54.31" gradientUnits="userSpaceOnUse"><stop stop-color="#C4C9E5"/><stop offset=".076" stop-color="#C9CEE7"/><stop offset=".683" stop-color="#F0F1F8"/><stop offset="1" stop-color="#fff"/></linearGradient><radialGradient id="paint60_radial_20_1336" cx="0" cy="0" r="1" gradientTransform="translate(148.322 37.007) scale(12.6535 12.6291)" gradientUnits="userSpaceOnUse"><stop stop-color="#7F7EF1"/><stop offset="1" stop-color="#34318D"/></radialGradient><linearGradient id="paint61_linear_20_1336" x1="204.434" x2="182.827" y1="182.899" y2="153.869" gradientUnits="userSpaceOnUse"><stop stop-color="#D33D6F"/><stop offset="1" stop-color="#F2728D"/></linearGradient><linearGradient id="paint62_linear_20_1336" x1="215.014" x2="201.87" y1="20.492" y2="7.322" gradientUnits="userSpaceOnUse"><stop stop-color="#5555C6"/><stop offset="1" stop-color="#7F7FF4"/></linearGradient><linearGradient id="paint63_linear_20_1336" x1="16.773" x2="27.075" y1="229.916" y2="247.795" gradientUnits="userSpaceOnUse"><stop offset=".337" stop-color="#807DFB"/><stop offset=".447" stop-color="#7A76F2"/><stop offset=".625" stop-color="#6863DA"/><stop offset=".85" stop-color="#4C45B2"/><stop offset="1" stop-color="#362E94"/></linearGradient><linearGradient id="paint64_linear_20_1336" x1="18.404" x2="31.588" y1="251.93" y2="251.93" gradientUnits="userSpaceOnUse"><stop stop-color="#C2C7E2"/><stop offset=".216" stop-color="#D6D9EB"/><stop offset=".701" stop-color="#fff"/></linearGradient><linearGradient id="paint65_linear_20_1336" x1="357.915" x2="357.915" y1="368.048" y2="263.502" gradientUnits="userSpaceOnUse"><stop offset=".247" stop-color="#fff"/><stop offset=".486" stop-color="#EFF1FB"/><stop offset="1" stop-color="#D1D7F3"/></linearGradient><linearGradient id="paint66_linear_20_1336" x1="319.407" x2="319.407" y1="368.048" y2="263.502" gradientUnits="userSpaceOnUse"><stop offset=".247" stop-color="#fff"/><stop offset=".283" stop-color="#FDFEFE"/><stop offset="1" stop-color="#DFE4F4"/></linearGradient><linearGradient id="paint67_linear_20_1336" x1="127.589" x2="127.589" y1="322" y2="240.792" gradientUnits="userSpaceOnUse"><stop stop-color="#fff"/><stop offset=".317" stop-color="#EFF1FB"/><stop offset="1" stop-color="#D1D7F3"/></linearGradient><linearGradient id="paint68_linear_20_1336" x1="100.718" x2="100.718" y1="322" y2="240.792" gradientUnits="userSpaceOnUse"><stop stop-color="#fff"/><stop offset=".048" stop-color="#FDFEFE"/><stop offset="1" stop-color="#DFE4F4"/></linearGradient><clipPath id="clip0_20_1336"><rect width="392" height="322" fill="#fff"/></clipPath></defs></svg>